<svg xmlns="http://www.w3.org/2000/svg" viewBox="0 0 393.92 127.21"><defs><style>.cls-1{fill:#fff;}</style></defs><title>Recurso 1</title><g id="Capa_2" data-name="Capa 2"><g id="Capa_1-2" data-name="Capa 1"><g id="Layer_1" data-name="Layer 1"><path class="cls-1" d="M146.05,3.65a53.05,53.05,0,0,1,8.8-.68c4.53,0,7.85,1.06,10,2.95a9.56,9.56,0,0,1,3.11,7.43,10.48,10.48,0,0,1-2.74,7.59c-2.42,2.58-6.38,3.9-10.85,3.9a15.46,15.46,0,0,1-3.69-.32V38.74h-4.58V3.65Zm4.58,17.12a15.49,15.49,0,0,0,3.79.37c5.53,0,8.9-2.69,8.9-7.58,0-4.69-3.32-6.95-8.38-6.95a19.27,19.27,0,0,0-4.32.37V20.77Z"/><path class="cls-1" d="M174.07,3.7a48.05,48.05,0,0,1,8.8-.74c4.9,0,8.06.9,10.27,2.9a8.84,8.84,0,0,1,2.79,6.74,9.32,9.32,0,0,1-6.69,9.06v.16c2.74.95,4.37,3.48,5.22,7.17,1.16,4.95,2,8.37,2.74,9.74h-4.74c-.58-1-1.37-4.06-2.37-8.48-1.05-4.9-3-6.74-7.11-6.9h-4.32V38.73h-4.58V3.7Zm4.58,16.17h4.69c4.9,0,8-2.69,8-6.74,0-4.58-3.32-6.58-8.16-6.64a19,19,0,0,0-4.53.42v13Z"/><path class="cls-1" d="M232.89,20.61c0,12.22-7.43,18.7-16.48,18.7-9.38,0-16-7.27-16-18,0-11.27,7-18.65,16.49-18.65C226.63,2.65,232.89,10.08,232.89,20.61Zm-27.55.58c0,7.59,4.11,14.38,11.33,14.38s11.38-6.69,11.38-14.75c0-7.06-3.69-14.43-11.33-14.43S205.34,13.4,205.34,21.19Z"/><path class="cls-1" d="M243.42,3.23V18.08h17.17V3.23h4.64v35.5h-4.64V22.09H243.42V38.73h-4.58V3.23Z"/><path class="cls-1" d="M277.75,3.23v35.5h-4.58V3.23Z"/><path class="cls-1" d="M285.75,3.7A44.48,44.48,0,0,1,294.13,3c4.58,0,7.53.79,9.74,2.58a7.46,7.46,0,0,1,2.95,6.27c0,3.43-2.26,6.43-6,7.8v.1c3.37.84,7.32,3.63,7.32,8.9a9.56,9.56,0,0,1-3,7.11C302.66,38,298.66,39,292.87,39a53.64,53.64,0,0,1-7.11-.42V3.7Zm4.59,14.54h4.16c4.85,0,7.69-2.53,7.69-5.95,0-4.16-3.16-5.79-7.8-5.79a19.47,19.47,0,0,0-4.06.32V18.24Zm0,17a24.23,24.23,0,0,0,3.85.21c4.74,0,9.11-1.74,9.11-6.9,0-4.85-4.16-6.85-9.16-6.85h-3.79V35.25Z"/><path class="cls-1" d="M318.88,3.23v35.5H314.3V3.23Z"/><path class="cls-1" d="M326.88,3.7A65.8,65.8,0,0,1,336.63,3C343.21,3,347.9,4.49,351,7.39s5,7,5,12.75-1.79,10.53-5.11,13.8-8.8,5.11-15.7,5.11a74.93,74.93,0,0,1-8.33-.42V3.7Zm4.58,31.4a29.07,29.07,0,0,0,4.64.26c9.8,0,15.12-5.48,15.12-15.06,0-8.38-4.69-13.7-14.38-13.7a26.3,26.3,0,0,0-5.37.47v28Z"/><path class="cls-1" d="M392.29,20.61c0,12.22-7.43,18.7-16.49,18.7-9.38,0-16-7.27-16-18,0-11.27,7-18.65,16.49-18.65C386,2.65,392.29,10.08,392.29,20.61Zm-27.55.58c0,7.59,4.11,14.38,11.33,14.38s11.38-6.69,11.38-14.75c0-7.06-3.69-14.43-11.33-14.43S364.74,13.4,364.74,21.19Z"/><path class="cls-1" d="M147.65,44.15a45.77,45.77,0,0,1,8.39-.7c4.67,0,7.69.85,9.8,2.76a8.43,8.43,0,0,1,2.66,6.43,8.88,8.88,0,0,1-6.38,8.64v.15c2.61.9,4.17,3.31,5,6.83,1.1,4.72,1.91,8,2.61,9.3h-4.52c-.55-1-1.31-3.87-2.26-8.09-1-4.67-2.81-6.43-6.78-6.58H152V77.56h-4.37V44.15ZM152,59.58h4.47c4.68,0,7.64-2.56,7.64-6.43,0-4.37-3.17-6.28-7.79-6.33a18,18,0,0,0-4.32.4Z"/><path class="cls-1" d="M192.23,61.69H179.06V73.9h14.68v3.67H174.69V43.7H193v3.67H179.06V58.08h13.17v3.61Z"/><path class="cls-1" d="M217,61.69H203.79V73.9h14.68v3.67H199.42V43.7h18.29v3.67H203.79V58.08H217v3.61Z"/><path class="cls-1" d="M224.14,77.57V43.7h4.78l10.85,17.14a96.39,96.39,0,0,1,6.08,11l.1,0c-.4-4.52-.5-8.64-.5-13.92V43.71h4.12V77.58h-4.42L234.4,60.39a108.06,108.06,0,0,1-6.33-11.31l-.15.05c.25,4.27.35,8.34.35,14V77.57Z"/><path class="cls-1" d="M264.65,77.57,253.59,43.7h4.72l5.28,16.68c1.46,4.57,2.71,8.69,3.62,12.66h.1c.95-3.92,2.36-8.19,3.87-12.61l5.73-16.73h4.67L269.47,77.57Z"/><path class="cls-1" d="M289.63,43.7V77.57h-4.37V43.7Z"/><path class="cls-1" d="M302.75,66.91l-3.52,10.65h-4.52l11.51-33.87h5.28l11.56,33.87h-4.67l-3.62-10.65Zm11.11-3.42-3.32-9.75c-.75-2.21-1.26-4.22-1.76-6.18h-.1c-.5,2-1.06,4.07-1.71,6.13l-3.31,9.8Z"/><path class="cls-1" d="M328,44.15a45.77,45.77,0,0,1,8.39-.7c4.67,0,7.69.85,9.8,2.76a8.43,8.43,0,0,1,2.66,6.43,8.88,8.88,0,0,1-6.38,8.64v.15c2.61.9,4.17,3.31,5,6.83,1.1,4.72,1.91,8,2.61,9.3h-4.52c-.55-1-1.31-3.87-2.26-8.09-1-4.67-2.81-6.43-6.78-6.58H332.4V77.56H328Zm4.37,15.43h4.47c4.68,0,7.64-2.56,7.64-6.43,0-4.37-3.17-6.28-7.79-6.33a18,18,0,0,0-4.32.4Z"/><path class="cls-1" d="M371.2,66.91l-3.52,10.65h-4.52l11.51-33.87h5.27L391.5,77.56h-4.67l-3.62-10.65Zm11.1-3.42L379,53.74c-.75-2.21-1.26-4.22-1.76-6.18h-.1c-.5,2-1.06,4.07-1.71,6.13l-3.32,9.8Z"/><path class="cls-1" d="M181.4,108.45c-.31-5.74-.67-12.65-.61-17.78h-.18c-1.41,4.83-3.12,10-5.2,15.64l-7.27,20h-4l-6.66-19.61c-2-5.81-3.61-11.12-4.77-16h-.12c-.12,5.13-.43,12-.79,18.21l-1.1,17.66h-5.07l2.87-41.19h6.78l7,19.92c1.71,5.07,3.12,9.59,4.16,13.87h.18c1-4.16,2.51-8.68,4.34-13.87l7.33-19.92h6.78l2.57,41.19h-5.19Z"/><path class="cls-1" d="M217.14,107.23h-16v14.85H219v4.46H195.81V85.36h22.24v4.46H201.13v13h16Z"/><path class="cls-1" d="M225.87,126.54V85.36h5.8l13.2,20.84a114.89,114.89,0,0,1,7.39,13.38l.12-.06c-.49-5.5-.61-10.51-.61-16.93V85.36h5v41.19H251.4l-13.08-20.9a131.32,131.32,0,0,1-7.7-13.75l-.18.06c.31,5.19.43,10.14.43,17v17.6h-5Z"/><path class="cls-1" d="M301.26,105.52c0,14.18-8.61,21.69-19.13,21.69-10.88,0-18.51-8.43-18.51-20.9,0-13.08,8.13-21.63,19.13-21.63C294,84.68,301.26,93.3,301.26,105.52Zm-31.95.67c0,8.8,4.76,16.68,13.14,16.68s13.2-7.76,13.2-17.11c0-8.19-4.28-16.74-13.14-16.74S269.31,97.15,269.31,106.19Z"/><path class="cls-1" d="M308.16,85.91a55.38,55.38,0,0,1,10.21-.86c5.68,0,9.35,1,11.92,3.36a10.27,10.27,0,0,1,3.24,7.82,10.81,10.81,0,0,1-7.76,10.51v.18c3.18,1.1,5.07,4,6.05,8.31,1.35,5.74,2.32,9.71,3.18,11.31h-5.5c-.67-1.16-1.59-4.71-2.75-9.84-1.22-5.68-3.42-7.82-8.25-8h-5v17.84h-5.32V85.91Zm5.32,18.75h5.44c5.68,0,9.29-3.12,9.29-7.82,0-5.32-3.85-7.64-9.47-7.7a21.61,21.61,0,0,0-5.26.49Z"/><path class="cls-1" d="M362.36,107.23h-16v14.85h17.84v4.46H341V85.36h22.24v4.46H346.35v13h16v4.39Z"/><path class="cls-1" d="M370.35,120.06a18.78,18.78,0,0,0,9.53,2.69c5.44,0,8.61-2.87,8.61-7,0-3.85-2.2-6-7.76-8.19-6.72-2.38-10.88-5.86-10.88-11.67,0-6.42,5.32-11.18,13.32-11.18a18.65,18.65,0,0,1,9.1,2L390.8,91a16.4,16.4,0,0,0-7.82-2c-5.62,0-7.76,3.36-7.76,6.17,0,3.85,2.51,5.74,8.19,7.94,7,2.69,10.51,6,10.51,12.1,0,6.36-4.7,11.86-14.42,11.86-4,0-8.31-1.16-10.51-2.63Z"/><polygon class="cls-1" points="31.05 46.89 30.89 46.89 21.53 51.61 19.88 44.29 32.3 38.16 40.41 38.16 40.41 89.29 31.05 89.29 31.05 46.89"/><path class="cls-1" d="M45.75,76.16c0-6.37,3.7-10.7,9.6-13.3v-.23C50,60,47.56,55.78,47.56,51.3c0-8.34,7.39-14,17.07-14,11,0,16.05,6.61,16.05,12.9,0,4.33-2.28,8.82-7.87,11.56V62c5.58,2.13,9.75,6.53,9.75,12.9,0,9.12-7.71,15.26-18.65,15.26-11.94,0-18.16-6.84-18.16-14m27-.47c0-5.19-3.86-8-9.52-9.6-4.8,1.41-7.56,4.72-7.56,9-.16,4.33,3.15,8.26,8.58,8.26,5.11,0,8.5-3.23,8.5-7.63m-16-24.78c0,4.17,3.46,6.68,8.34,8,3.46-1,6.37-3.86,6.37-7.71,0-3.54-2.12-7.24-7.31-7.24-4.89,0-7.4,3.22-7.4,6.93"/><path class="cls-1" d="M63,126a63,63,0,1,1,63-63,63.07,63.07,0,0,1-63,63M63,7.42A55.59,55.59,0,1,0,118.59,63,55.65,55.65,0,0,0,63,7.42"/><polygon class="cls-1" points="109.89 58.02 100.02 58.02 100.02 48.15 93.18 48.15 93.18 58.02 83.31 58.02 83.31 64.87 93.18 64.87 93.18 74.74 100.02 74.74 100.02 64.87 109.89 64.87 109.89 58.02"/></g></g></g></svg>