<svg xmlns="http://www.w3.org/2000/svg" viewBox="0 0 414.24 88.71"><defs><style>.cls-1{fill:#fff;}</style></defs><title>Recurso 3</title><g id="Capa_2" data-name="Capa 2"><g id="Capa_1-2" data-name="Capa 1"><g id="Layer_2" data-name="Layer 2"><path class="cls-1" d="M338.14,13A42.45,42.45,0,0,0,325,44.45a44.25,44.25,0,0,0,44.6,44.26c24.73,0,44.62-19.42,44.62-44.26,0-12.16-4.45-22.54-13.05-31.32A44.52,44.52,0,0,0,338.14,13M286.48,47.28h30.07V33.81H286.48V15h32.76V1.43H272.38V87.38h46.95V73.83H286.47V47.28ZM79.82,1.43V87.38H93.93V1.43ZM18.18,87.38c15.79,0,27.93-3.55,36.08-10.9,9.32-8.34,14-19,14-32C68.3,30.9,63.49,20,53.93,11.81,45.85,4.9,33.88,1.43,18.34,1.43H0V87.38Zm139.19-18.8,7.86,18.79h15.62L144.22,1.15H137.1L99.52,87.37H115l8.24-19.15a8.93,8.93,0,0,0,.38-1.24c.36.17.85.35,1.49.61a44.3,44.3,0,0,0,15.52,2.75,45.32,45.32,0,0,0,13.68-2.12,12.61,12.61,0,0,0,2.57-1.07C157,67.52,157.28,68.32,157.37,68.58Zm90.92-40.89L259,18.46C249.78,6.12,237.43,0,222.89,0a44.35,44.35,0,1,0-.62,88.7,42,42,0,0,0,17.64-3.91,40.24,40.24,0,0,0,14.21-10.45,34.06,34.06,0,0,0,7.54-14.21,50.18,50.18,0,0,0,1.5-16L263,41.52H224.31V55.1h23.78c-.62,5.31-3.35,9.93-8.17,13.75a27.38,27.38,0,0,1-17.81,6.29c-7.69,0-14.61-3.18-21-9.49a28.94,28.94,0,0,1-8.66-21,30.32,30.32,0,0,1,9.2-22.27,28.59,28.59,0,0,1,21.13-8.79C233.21,13.57,241.46,18.36,248.29,27.69Zm142.87-5.15c6,5.85,8.94,13.21,8.94,21.81a30,30,0,0,1-8.94,21.83,29.45,29.45,0,0,1-21.55,9,30.63,30.63,0,0,1-30.44-30.79,30.16,30.16,0,0,1,9-21.9,29.15,29.15,0,0,1,21.47-8.87A29.57,29.57,0,0,1,391.16,22.54ZM18.64,15c12.05,0,20.54,2.48,25.88,7.19,6.39,5.59,9.57,13,9.57,22.17A28.6,28.6,0,0,1,44.9,66.1c-5.35,5-14,7.72-26.26,7.72H14.7V15h3.94ZM128.7,55c.25-.54.7-1.43.87-1.87L140.42,26.9l10.64,26.5c.17.47.55,1.16.78,1.79l-1.31.27a37.84,37.84,0,0,1-19.89,0A8.86,8.86,0,0,0,128.7,55Z"/></g></g></g></svg>