<?xml version="1.0" encoding="utf-8"?>
<!-- Generator: Adobe Illustrator 23.0.2, SVG Export Plug-In . SVG Version: 6.00 Build 0)  -->
<svg version="1.1" id="Layer_1" xmlns="http://www.w3.org/2000/svg" xmlns:xlink="http://www.w3.org/1999/xlink" x="0px" y="0px"
	 viewBox="0 0 792 102" style="enable-background:new 0 0 792 102;" xml:space="preserve">
<style type="text/css">
	.st0{fill:#FFFFFF;}
</style>
<g>
	<g>
		<path class="st0" d="M179.72,54.51c0-0.96-1.12-0.96-1.66-0.96c-1.84,0-5.07,0.13-7.01,0.2c-0.77,0.03-1.31,0.05-1.43,0.05
			c-0.11,0-0.52-0.02-1.15-0.04c-1.84-0.07-5.67-0.21-8.58-0.21c-0.54,0-1.66,0-1.66,0.96c0,0.46,0.41,0.79,0.97,0.79
			c0.78,0,2.2,0.09,2.85,0.25c3.16,0.86,3.67,1.5,3.67,8.47v14.43c0,1.29-0.5,2.15-1.58,2.73c-2.11,1.2-6.49,1.74-9.67,1.74
			c-8.62,0-16.14-3.03-22.36-9c-3.13-2.99-9.04-11.71-9.04-23.3c0-9.24,3.15-17.21,8.41-21.33c6.26-4.87,12.47-5.54,18.25-5.54
			c10.7,0,17.76,3.39,19.99,6.74c1.47,2.32,1.73,4.97,1.77,5.48c0.08,0.71,0.17,1.52,0.88,1.52c0.98,0,1.06-0.93,1.06-2.06
			c0-6.16,0.32-9.1,0.49-10.69c0.07-0.62,0.11-1.03,0.11-1.36c0-0.61-0.43-0.96-1.3-1.05c-2.28-0.09-5.25-0.45-6.93-0.84
			c-0.28-0.06-7.04-1.45-13.23-1.45c-6.64,0-15.26,0.61-23.05,5.39c-9.09,5.64-14.51,16.16-14.51,28.16
			c0,11.47,5.57,20.31,10.34,24.4c7.05,6.07,16.64,9.15,28.51,9.15c5.33,0,12.96-1.01,18.39-3.86c1.18-0.68,1.26-0.99,1.26-4.83
			v-9.5c0-3.54,0-6.1,0.17-8.81c0.18-3.05,0.92-4.21,2.98-4.58c1-0.16,1.5-0.25,2.07-0.25C179.31,55.3,179.72,54.96,179.72,54.51z"
			/>
		<path class="st0" d="M221.24,77.37c-0.55,0-1.38-0.06-2.2-0.33c-1.24-0.36-2.78-1.37-4.71-6.15c-2.47-6.17-7.72-19.86-10.85-28.04
			c-1.25-3.28-2.16-5.65-2.41-6.27c-0.67-1.72-0.95-2.23-1.51-2.23c-0.56,0-0.83,0.51-1.52,2.4l-12.92,35.34
			c-1.09,3.04-2.19,4.86-4.55,5.17c-0.46,0.06-1.24,0.11-1.62,0.11c-0.47,0-0.79,0.25-0.79,0.62c0,0.74,0.92,0.74,1.36,0.74
			c1.81,0,3.81-0.08,5.13-0.13c0.63-0.02,1.09-0.04,1.3-0.04c0.25,0,0.79,0.03,1.44,0.06c0.97,0.05,2.17,0.11,3,0.11
			c0.94,0,1.13-0.4,1.13-0.74c0-0.23-0.11-0.62-0.85-0.62h-0.57c-0.73,0-1.88-0.37-1.88-1.37c0-1,0.28-2.32,0.78-3.72l3.41-10.06
			c0.1-0.26,0.21-0.28,0.31-0.28h12.23c0.14,0,0.17,0.01,0.25,0.16l5.29,14c0.14,0.38,0.16,0.72,0.05,0.95
			c-0.07,0.16-0.18,0.2-0.2,0.21c-0.53,0.13-0.61,0.48-0.61,0.67c0,0.58,0.64,0.61,1.71,0.67l0.27,0.01
			c2.53,0.07,5.71,0.11,8.94,0.11c0.94,0,1.42-0.25,1.42-0.74C222.09,77.58,221.8,77.37,221.24,77.37z M204.19,59.33h-10.75
			c0-0.01,0.01-0.02,0.01-0.03l5.01-15.36c0.07-0.2,0.12-0.31,0.16-0.38c0.04,0.07,0.09,0.18,0.16,0.39l5.4,15.34
			C204.18,59.3,204.19,59.32,204.19,59.33z"/>
		<path class="st0" d="M281.47,77.37c-0.55,0-2.01,0-3.61-0.5c-2.32-0.76-2.67-3.91-2.88-5.79l-3.81-34.94
			c-0.1-0.9-0.25-1.79-0.96-1.79c-0.63,0-0.93,0.67-1.11,1.07l-16.48,35.2l-17.15-35.25c-0.28-0.61-0.57-1.02-1.11-1.02
			c-0.68,0-0.83,0.88-0.9,1.27l-4.1,37.1l-0.02,0.21c-0.21,2.05-0.41,3.98-2.03,4.27c-0.83,0.16-1.21,0.16-1.65,0.16
			c-0.42,0-0.85,0.2-0.85,0.57c0,0.53,0.42,0.79,1.25,0.79c0.98,0,2.44-0.07,3.51-0.12c0.61-0.03,1.09-0.05,1.27-0.05
			c0.14,0,0.51,0.02,1.02,0.04c1.13,0.05,2.83,0.13,4.27,0.13c0.39,0,1.3,0,1.3-0.79c0-0.32-0.32-0.57-0.74-0.57
			c-0.34,0-1.17-0.06-2.11-0.28c-0.73-0.14-1.25-0.77-1.25-1.49c0-0.97,0-1.98,0.06-2.88l2.22-25.73
			c1.35,3.05,6.77,14.66,7.27,15.65l0.09,0.19c1.56,3.12,5.31,10.65,6.57,13.02l0.13,0.24c1.08,2.04,1.33,2.53,1.89,2.53
			c0.63,0,0.84-0.45,1.74-2.35l14.04-29.79l2.67,28.65c0.11,0.97,0.04,1.59-0.05,1.75c-0.38,0.09-0.58,0.31-0.58,0.66
			c0,0.58,0.62,0.74,1.85,0.85c2.17,0.18,8.33,0.34,9.53,0.34c1.33,0,1.48-0.55,1.48-0.79C282.2,77.68,282.07,77.37,281.47,77.37z"
			/>
		<path class="st0" d="M312.01,70.35c-0.6,0-0.71,0.64-0.8,1.1c-0.39,2.3-1.05,3.37-2.44,3.95c-1.45,0.61-3.95,0.61-5.45,0.61
			c-5.7,0-6.27-0.79-6.43-4.48c-0.04-0.87-0.02-4.6-0.01-7.33c0.01-1.07,0.01-2,0.01-2.55v-5.09c0-0.1,0.02-0.12,0.13-0.12
			c0.97,0,6.68,0.12,8.25,0.29c2.04,0.21,2.55,1.04,2.77,1.83c0.22,0.71,0.22,1.25,0.22,1.83c0,0.49,0.27,0.8,0.69,0.8
			c0.69,0,0.69-0.86,0.69-1.38c0-0.38,0.11-2.5,0.23-3.68c0.11-1.18,0.26-2,0.36-2.54c0.06-0.34,0.11-0.57,0.11-0.73
			c0-0.67-0.4-0.74-0.57-0.74c-0.34,0-0.58,0.27-0.98,0.73l-0.1,0.12c-0.46,0.51-1.26,0.61-2.54,0.72
			c-0.97,0.09-5.38,0.12-9.21,0.13c-0.01-0.01-0.03-0.07-0.03-0.31V37.53c0-0.24,0.05-0.3,0.07-0.3h0c0.72,0,6.93,0.06,7.9,0.17
			c3.01,0.33,3.52,0.98,3.88,1.8c0.26,0.61,0.33,1.53,0.33,1.97c0,0.85,0.4,1.03,0.74,1.03c0.34,0,0.56-0.29,0.68-0.87
			c0.08-0.46,0.15-1.69,0.21-2.67c0.03-0.52,0.06-0.97,0.08-1.17c0.1-0.94,0.24-1.56,0.34-2c0.07-0.32,0.12-0.55,0.12-0.75
			c0-0.7-0.32-0.8-0.51-0.8c-0.23,0-0.42,0.09-0.58,0.18c-0.1,0.05-0.2,0.1-0.3,0.12c-0.48,0.12-1.43,0.23-2.43,0.28
			c-1.31,0.06-12.75,0.06-13.24,0.06c-0.07,0-0.35-0.01-0.77-0.03c-1.24-0.05-3.81-0.15-5.77-0.15c-0.36,0-1.21,0-1.21,0.74
			c0,0.36,0.31,0.63,0.74,0.63c0.52,0,1.47,0.06,1.91,0.17c1.64,0.35,2.15,1.03,2.27,3.04c0.12,1.84,0.12,3.47,0.12,12.48v10.19
			c0,5.43,0,10.11-0.29,12.52c-0.25,1.81-0.54,2.76-1.46,2.95c-0.31,0.07-1.09,0.23-1.68,0.23c-0.51,0-0.74,0.32-0.74,0.63
			c0,0.74,0.85,0.74,1.21,0.74c1.24,0,3.41-0.09,4.71-0.14c0.52-0.02,0.88-0.03,0.96-0.03c0.5,0,1.22,0.03,2.21,0.08
			c2.25,0.1,6,0.27,12.08,0.27c2.26,0,2.94,0,3.4-1.72c0.29-1.2,0.76-5.15,0.76-5.68C312.64,71.07,312.64,70.35,312.01,70.35z"/>
		<path class="st0" d="M367.33,53.39c-0.25,0-0.4,0.19-0.53,0.37l-0.07,0.09c-0.22,0.31-0.5,0.41-1.34,0.48
			c-0.46,0.03-0.92,0.03-1.49,0.03l-5.25,0.03c0-0.01,0-0.01,0-0.02V44.1c0-0.08,0.01-0.11,0.02-0.09l5.17,0.1
			c1.19,0.03,1.88,0.57,2.04,0.91c0.18,0.39,0.28,0.92,0.28,1.16c0,0.65,0.43,0.68,0.52,0.68c0.19,0,0.45-0.1,0.55-0.6
			c0.05-0.27,0.09-0.95,0.12-1.54c0.02-0.31,0.04-0.58,0.05-0.69c0.06-0.54,0.14-0.89,0.2-1.15c0.04-0.19,0.07-0.33,0.07-0.46
			c0-0.34-0.2-0.58-0.48-0.58c-0.15,0-0.27,0.07-0.37,0.13c-0.05,0.03-0.11,0.07-0.19,0.09c-0.2,0.07-0.58,0.08-1.02,0.1l-0.38,0.02
			c-0.73,0.03-7,0.03-8.25,0.03c-0.04,0-0.2-0.01-0.44-0.02c-0.72-0.03-2.22-0.08-3.36-0.08c-0.2,0-0.82,0-0.82,0.55
			c0,0.28,0.24,0.48,0.55,0.48c0.29,0,0.84,0.03,1.08,0.09c0.9,0.19,1.16,0.53,1.22,1.66c0.07,1.07,0.07,3.02,0.07,8.24v5.91
			c0,3.13,0,7.86-0.17,9.25c-0.14,1-0.29,1.52-0.76,1.61c-0.18,0.04-0.62,0.13-0.95,0.13c-0.38,0-0.55,0.25-0.55,0.48
			c0,0.55,0.62,0.55,0.82,0.55c0.72,0,1.99-0.05,2.74-0.08c0.29-0.01,0.5-0.02,0.55-0.02c0.04,0,0.18,0,0.39,0.01
			c0.75,0.03,2.32,0.09,3.74,0.09c0.74,0,0.82-0.39,0.82-0.55c0-0.23-0.17-0.48-0.55-0.48c-0.28,0-0.99-0.06-1.48-0.13
			c-0.78-0.1-0.96-0.6-1.07-1.6c-0.16-1.4-0.16-6.13-0.16-9.26v-2.86c0-0.01,0-0.02,0-0.02c1.28,0,5.24,0.01,5.99,0.1
			c0.89,0.11,1.37,0.6,1.52,1.02c0.11,0.33,0.15,0.72,0.18,1.04l0.01,0.08c0,0.35,0.21,0.58,0.52,0.58c0.52,0,0.52-0.6,0.52-0.92
			c0-0.23,0.07-1.58,0.13-2.22c0.06-0.68,0.15-1.15,0.21-1.47c0.04-0.21,0.06-0.36,0.06-0.44
			C367.78,53.44,367.47,53.39,367.33,53.39z"/>
		<path class="st0" d="M666.52,26.48c-0.5-2.04-1.18-4.83-1.18-6.33c0-0.5,0-1.27-0.69-1.27c-0.2,0-0.48,0.06-0.91,0.14
			c-1.17,0.24-3.35,0.68-7.2,0.68H371.77c-1.01,0-4.16-0.17-6.46-0.41c-1.37-0.1-2.17-0.46-2.75-0.71
			c-0.34-0.15-0.61-0.27-0.88-0.27c-0.47,0-0.75,0.72-1.05,1.65l-0.04,0.12c-0.1,0.39-1.81,7.7-1.81,8.6c0,0.95,0.53,1.02,0.69,1.02
			c0.5,0,0.82-0.3,1.08-0.99c0.25-0.58,0.48-1.13,1.37-2.5c1.24-1.86,3.06-2.42,8.14-2.5l11.85-0.16v34.4c0,7.7,0,19.33-0.41,22.75
			c-0.36,2.62-0.79,4-2.16,4.27c-0.91,0.2-1.8,0.32-2.4,0.32c-0.69,0-0.94,0.42-0.94,0.77c0,0.94,1.07,0.94,1.59,0.94
			c1.75,0,4.83-0.12,6.67-0.2c0.73-0.03,1.25-0.05,1.36-0.05c0.09,0,0.44,0.01,0.97,0.03c1.83,0.07,5.64,0.21,9.11,0.21
			c1.32,0,1.59-0.51,1.59-0.94c0-0.36-0.25-0.77-0.94-0.77c-0.71,0-2.48-0.16-3.65-0.33c-2.14-0.29-2.69-1.72-2.96-4.26
			c-0.41-3.43-0.41-15.06-0.41-22.76V23.55l264.04,0.16c7.06,0.15,11.48,1.74,11.81,4.25l0.08,0.9c0.07,0.94,0.18,1.66,0.94,1.66
			c0.2,0,0.86-0.1,0.86-1.35C667.09,28.81,666.88,27.96,666.52,26.48z"/>
		<path class="st0" d="M445.88,78.15c-0.5,0-1.78-0.11-2.63-0.23c-1.5-0.2-1.89-1.22-2.07-3.02c-0.29-2.48-0.29-7.29-0.29-12.86
			V51.59c0-9.25,0-10.92,0.12-12.81c0.12-2.11,0.6-2.87,1.96-3.13c0.69-0.12,1.04-0.17,1.44-0.17c0.44,0,0.76-0.27,0.76-0.64
			c0-0.76-0.86-0.76-1.23-0.76c-1.27,0-3.5,0.09-4.83,0.14c-0.53,0.02-0.9,0.04-0.99,0.04c-0.07,0-0.36-0.01-0.79-0.03
			c-1.27-0.05-3.91-0.15-5.93-0.15c-0.37,0-1.23,0-1.23,0.76c0,0.37,0.32,0.64,0.76,0.64c0.54,0,1.51,0.06,1.96,0.17
			c1.69,0.36,2.21,1.06,2.33,3.13c0.12,1.89,0.12,3.56,0.12,12.81v1.25c0,0.04,0,0.06,0,0.07c-0.01,0-0.03,0.01-0.07,0.01h-25.18
			c-0.04,0-0.06,0-0.07,0c0-0.01-0.01-0.03-0.01-0.07v-1.25c0-9.25,0-10.92,0.12-12.81c0.12-2.11,0.6-2.87,1.96-3.13
			c0.69-0.12,1.04-0.17,1.44-0.17c0.44,0,0.76-0.27,0.76-0.64c0-0.76-0.86-0.76-1.23-0.76c-1.27,0-3.5,0.09-4.84,0.14
			c-0.53,0.02-0.9,0.04-0.98,0.04c-0.07,0-0.36-0.01-0.79-0.03c-1.27-0.05-3.92-0.15-5.93-0.15c-0.37,0-1.23,0-1.23,0.76
			c0,0.37,0.32,0.64,0.76,0.64c0.54,0,1.51,0.06,1.96,0.17c1.69,0.36,2.21,1.06,2.33,3.13c0.12,1.89,0.12,3.56,0.12,12.81v10.45
			c0,5.57,0,10.38-0.29,12.85c-0.25,1.82-0.56,2.84-1.5,3.03c-0.32,0.07-1.12,0.23-1.72,0.23c-0.52,0-0.76,0.32-0.76,0.64
			c0,0.76,0.86,0.76,1.23,0.76c1.27,0,3.5-0.09,4.84-0.14c0.53-0.02,0.9-0.04,0.98-0.04c0.07,0,0.32,0.01,0.7,0.02
			c1.33,0.05,4.09,0.15,6.6,0.15c1.07,0,1.23-0.47,1.23-0.76c0-0.29-0.2-0.64-0.76-0.64c-0.5,0-1.78-0.11-2.63-0.23
			c-1.5-0.2-1.89-1.22-2.07-3.02c-0.29-2.48-0.29-7.29-0.29-12.86V55.8c0-0.04,0-0.06,0-0.07c0.01,0,0.03-0.01,0.07-0.01h25.18
			c0.08,0,0.08,0.05,0.08,0.08v6.24c0,5.57,0,10.38-0.29,12.85c-0.26,1.86-0.56,2.84-1.5,3.03c-0.32,0.07-1.12,0.23-1.73,0.23
			c-0.52,0-0.76,0.32-0.76,0.64c0,0.76,0.86,0.76,1.23,0.76c1.27,0,3.51-0.09,4.84-0.14c0.53-0.02,0.9-0.04,0.98-0.04
			c0.07,0,0.32,0.01,0.7,0.02c1.33,0.05,4.09,0.15,6.6,0.15c1.07,0,1.23-0.47,1.23-0.76C446.64,78.5,446.44,78.15,445.88,78.15z"/>
		<path class="st0" d="M495.95,78.15c-0.35,0-1.17,0-2.27-0.17c-1.58-0.25-4.02-0.96-7.08-4.19c-3.01-3.22-6.52-7.73-10.59-12.94
			l-1.59-2.04c4.83-4.52,7.09-8.89,7.09-13.75c0-4.16-2.65-7.18-4.22-8.31c-3.28-2.35-7.42-2.67-11.03-2.67
			c-1.16,0-3.39,0.07-5.01,0.12c-0.98,0.03-1.75,0.06-2,0.06c-0.07,0-0.36-0.01-0.79-0.03c-1.27-0.05-3.91-0.15-5.92-0.15
			c-0.37,0-1.23,0-1.23,0.76c0,0.37,0.32,0.64,0.76,0.64c0.54,0,1.51,0.06,1.96,0.17c1.86,0.39,2.22,1.28,2.33,3.13
			c0.12,1.89,0.12,3.56,0.12,12.81v10.45c0,5.57,0,10.38-0.29,12.85c-0.26,1.86-0.56,2.84-1.5,3.03c-0.32,0.07-1.12,0.23-1.72,0.23
			c-0.52,0-0.76,0.32-0.76,0.64c0,0.76,0.86,0.76,1.23,0.76c1.52,0,4.38-0.13,5.33-0.17l0.25-0.01c0.07,0,0.32,0.01,0.71,0.02
			c1.33,0.05,4.09,0.15,6.6,0.15c1.07,0,1.23-0.47,1.23-0.76c0-0.29-0.2-0.64-0.76-0.64c-0.5,0-1.78-0.11-2.63-0.23
			c-1.5-0.2-1.89-1.22-2.07-3.02c-0.29-2.48-0.29-7.29-0.29-12.86v-1.42c0-0.19,0.04-0.19,0.13-0.2l7.31,0.12
			c0.25,0,0.37,0.07,0.55,0.25c0.5,0.65,1.3,1.76,2.23,3.04c1.25,1.72,2.81,3.87,4.24,5.75l0.75,0.99c2.98,3.93,4.94,6.52,7.35,7.81
			c1.64,0.88,3.21,1.16,6.49,1.16h4.22c0.72,0,1.71,0,1.71-0.76C496.77,78.45,496.39,78.15,495.95,78.15z M461.78,37.33
			c0-0.23,0.09-0.37,0.27-0.44c0.56-0.17,2.11-0.35,3.9-0.35c6.26,0,9.99,4.34,9.99,11.6c0,4.08-1.31,7.41-3.5,8.92
			c-1.39,0.97-3.12,1.08-4.29,1.08c-2.52,0-5.25-0.41-6.09-0.91c-0.2-0.12-0.28-0.26-0.28-0.47V37.33z"/>
		<path class="st0" d="M588.52,34.08c-1.61,0-3.03,0.08-3.97,0.13c-0.49,0.03-0.86,0.05-1.08,0.05c-0.21,0-0.67-0.02-1.27-0.05
			c-1.24-0.05-3.11-0.13-4.9-0.13c-0.55,0-1.47,0-1.47,0.7c0,0.46,0.25,0.7,0.76,0.7c0.43,0,1.78,0.05,2.84,0.29
			c1.61,0.42,2.05,1.52,2.11,5.38l0.64,29.45c-1.01-1.08-2.68-2.91-4.72-5.14c-2.65-2.9-5.94-6.52-9.04-9.84
			c-9.19-9.84-18-19.37-18.9-20.38c-0.15-0.15-0.33-0.35-0.53-0.57c-0.77-0.85-1.31-1.42-1.75-1.42c-0.8,0-0.94,1-0.94,3.25
			l-0.06,34.04c0,5.43-0.32,6.92-1.59,7.28c-0.76,0.25-1.74,0.34-2.35,0.34c-0.56,0-0.76,0.33-0.76,0.64c0,0.76,0.8,0.76,1.23,0.76
			c1.86,0,3.64-0.09,4.71-0.14c0.48-0.02,0.83-0.04,0.99-0.04c0.15,0,0.45,0.01,0.87,0.03c1.12,0.05,3,0.14,5.43,0.14
			c0.4,0,1.35,0,1.35-0.76c0-0.31-0.2-0.64-0.76-0.64c-0.16,0-1.62-0.01-2.89-0.34c-1.3-0.39-1.99-1.52-2.12-6.63l-0.75-27.68
			c1.8,2.02,8.12,9.07,14.99,16.48c6.31,6.79,14.87,15.52,15.51,16.1c3.3,3.3,3.93,3.88,4.53,3.88c0.72,0,0.82-0.5,0.82-4.5
			l0.12-34.81c0-3.61,0.25-4.65,1.98-5.01c0.68-0.17,1.07-0.17,1.36-0.17c0.64,0,0.93-0.35,0.93-0.7
			C589.87,34.08,589.02,34.08,588.52,34.08z"/>
		<path class="st0" d="M622.53,70.97c-0.61,0-0.73,0.65-0.81,1.13c-0.4,2.36-1.08,3.46-2.5,4.06c-1.49,0.63-4.06,0.63-5.59,0.63
			c-5.86,0-6.45-0.81-6.61-4.6c-0.04-0.89-0.02-4.73-0.01-7.53c0.01-1.1,0.01-2.05,0.01-2.62v-5.23c0-0.12,0.03-0.14,0.13-0.14
			c1,0,6.87,0.12,8.47,0.3c2.1,0.22,2.62,1.07,2.85,1.88c0.23,0.73,0.23,1.29,0.23,1.88c0,0.49,0.27,0.81,0.7,0.81
			c0.7,0,0.7-0.88,0.7-1.41c0-0.38,0.11-2.56,0.24-3.78c0.11-1.21,0.27-2.05,0.37-2.61c0.07-0.35,0.11-0.58,0.11-0.74
			c0-0.68-0.4-0.76-0.58-0.76c-0.35,0-0.59,0.28-1,0.75l-0.1,0.12c-0.44,0.49-1.13,0.62-2.61,0.74c-1,0.09-5.52,0.12-9.46,0.13
			c-0.01-0.01-0.03-0.07-0.03-0.32V37.27c0-0.26,0.05-0.31,0.07-0.31c0.71,0,7.12,0.06,8.11,0.18c3.1,0.34,3.62,1.01,3.99,1.85
			c0.26,0.63,0.33,1.57,0.33,2.03c0,0.87,0.41,1.05,0.76,1.05c0.34,0,0.58-0.3,0.69-0.89c0.08-0.47,0.16-1.72,0.22-2.71
			c0.03-0.55,0.06-1.01,0.08-1.22c0.1-0.97,0.25-1.6,0.35-2.06c0.07-0.32,0.13-0.56,0.13-0.76c0-0.71-0.33-0.82-0.52-0.82
			c-0.23,0-0.43,0.1-0.59,0.18c-0.1,0.05-0.2,0.1-0.31,0.12c-0.49,0.12-1.47,0.24-2.5,0.29c-1.34,0.06-13.09,0.06-13.59,0.06
			c-0.07,0-0.36-0.01-0.79-0.03c-1.27-0.05-3.91-0.15-5.92-0.15c-0.37,0-1.23,0-1.23,0.76c0,0.37,0.32,0.64,0.76,0.64
			c0.54,0,1.51,0.06,1.96,0.17c1.86,0.39,2.22,1.28,2.33,3.13c0.12,1.89,0.12,3.56,0.12,12.81v10.45c0,5.57,0,10.38-0.29,12.85
			c-0.26,1.86-0.56,2.84-1.5,3.03c-0.32,0.07-1.12,0.23-1.72,0.23c-0.52,0-0.76,0.32-0.76,0.64c0,0.76,0.86,0.76,1.23,0.76
			c1.27,0,3.5-0.09,4.83-0.14c0.53-0.02,0.9-0.04,0.99-0.04c0.52,0,1.25,0.03,2.27,0.08c2.3,0.1,6.16,0.28,12.4,0.28
			c2.31,0,3.01,0,3.48-1.76c0.31-1.29,0.78-5.36,0.78-5.83C623.17,71.7,623.17,70.97,622.53,70.97z"/>
		<path class="st0" d="M645.65,53.56l-1.66-1.3c-5.74-4.7-7.14-6.62-7.14-9.76c0-3.95,2.82-6.61,7.03-6.61c5.01,0,6.69,2.1,7.18,3
			c0.32,0.59,0.68,2.15,0.74,2.87c0.05,0.43,0.13,1.02,0.75,1.02c0.7,0,0.7-1.03,0.7-1.65c0-3.17,0.15-5.05,0.21-5.85
			c0.02-0.23,0.03-0.38,0.03-0.44c0-0.62-0.47-0.7-0.88-0.7c-0.42,0-0.85-0.05-2.01-0.29c-1.71-0.41-3.49-0.6-5.59-0.6
			c-7.64,0-12.58,4.31-12.58,10.97c0,4.01,1.33,7.78,7.83,13.11l2.67,2.2c5.28,4.36,6.73,6.61,6.73,10.48
			c0,3.79-2.82,7.62-8.21,7.62c-2.21,0-7.45-0.57-8.52-5.84c-0.17-0.8-0.17-1.61-0.17-2.14c0-0.35,0-0.93-0.7-0.93
			c-0.64,0-0.71,0.78-0.75,1.21c-0.01,0.18-0.03,0.41-0.05,0.69c-0.09,1.2-0.25,3.21-0.25,5.62c0,1.57,0.04,2.01,1.05,2.51
			c2.25,1.1,4.9,1.63,8.08,1.63c3.58,0,6.74-0.88,9.13-2.55c3.81-2.71,5.17-6.99,5.17-10.09C654.43,63.15,653,59.35,645.65,53.56z"
			/>
		<path class="st0" d="M516.05,33.25c-17.25,0-23.68,14.42-23.68,23.51c0,11.38,7.3,23.62,23.33,23.62
			c13.9,0,23.98-10.34,23.98-24.58C539.68,42.31,530.18,33.25,516.05,33.25z M533.41,57.47c0,13.64-6.83,18.04-11.72,19.45V37
			C528.04,39.5,533.41,46.12,533.41,57.47z M520.16,36.76v40.51c-1.27,0.24-2.3,0.28-2.86,0.28c-0.33,0-0.64-0.04-0.97-0.05V35.86
			c1.58,0.07,3.17,0.36,4.71,0.9H520.16z M509.16,75.6c-6.48-3.37-10.58-10.87-10.58-20.51c0-9.2,3.93-15.68,10.58-18.15V75.6z
			 M510.69,36.46c1.28-0.34,2.66-0.54,4.11-0.59v41.51c-1.44-0.19-2.81-0.56-4.11-1.07V36.46z"/>
		<path class="st0" d="M337.89,43.42c-9.85,0-13.52,8.23-13.52,13.42c0,6.5,4.17,13.49,13.32,13.49c7.93,0,13.69-5.9,13.69-14.03
			C351.38,48.6,345.96,43.42,337.89,43.42z M334.42,67.59c-3.85-1.79-6.3-6.1-6.3-11.69c0-5.32,2.35-9.02,6.3-10.29V67.59z
			 M335.32,45.37c0.66-0.14,1.37-0.22,2.11-0.24v23.29c-0.74-0.08-1.44-0.24-2.11-0.47V45.37z M338.32,45.16
			c0.78,0.06,1.56,0.22,2.32,0.48v22.6c-0.92,0.22-1.67,0.25-2.04,0.25c-0.09,0-0.18-0.01-0.28-0.01V45.16z M341.53,67.97V45.99
			c3.33,1.54,6.06,5.19,6.06,11.25C347.59,64.44,344.2,67.04,341.53,67.97z"/>
	</g>
	<g>
		<path class="st0" d="M659.77,34.53v0.52h-1.48v3.88h-0.6v-3.88h-1.48v-0.52H659.77z"/>
		<path class="st0" d="M660.31,34.53h0.85l1.27,3.72l1.26-3.72h0.85v4.4h-0.57v-2.6c0-0.09,0-0.24,0.01-0.45
			c0-0.21,0.01-0.43,0.01-0.67l-1.26,3.71h-0.59l-1.27-3.71v0.13c0,0.11,0,0.27,0.01,0.49c0.01,0.22,0.01,0.38,0.01,0.49v2.6h-0.57
			V34.53z"/>
	</g>
</g>
</svg>
