<svg id="Layer_1" data-name="Layer 1" xmlns="http://www.w3.org/2000/svg" viewBox="0 0 562 72.33"><defs><style>.cls-1{fill:#fff;}</style></defs><title>Mesa de trabajo 1</title><path class="cls-1" d="M69.72,38.18c0-1-1.12-1-1.66-1-1.84,0-5.07.13-7,.2l-1.43,0-1.15,0c-1.84-.07-5.67-.21-8.58-.21-.54,0-1.66,0-1.66,1a.86.86,0,0,0,1,.79,16,16,0,0,1,2.85.25c3.16.86,3.67,1.5,3.67,8.47V62.12a2.81,2.81,0,0,1-1.58,2.73c-2.11,1.2-6.49,1.74-9.67,1.74a31.3,31.3,0,0,1-22.36-9c-3.13-3-9-11.71-9-23.3,0-9.24,3.15-17.21,8.41-21.33C27.74,8.09,34,7.42,39.73,7.42c10.7,0,17.76,3.39,20,6.74a12.83,12.83,0,0,1,1.77,5.48c.08.71.17,1.52.88,1.52,1,0,1.06-.93,1.06-2.06a90.51,90.51,0,0,1,.49-10.69A13,13,0,0,0,64,7.05c0-.61-.43-1-1.3-1a43.81,43.81,0,0,1-6.93-.84A74.91,74.91,0,0,0,42.57,3.71c-6.64,0-15.26.61-23,5.39C10.43,14.74,5,25.26,5,37.26c0,11.47,5.57,20.31,10.34,24.4,7,6.07,16.64,9.15,28.51,9.15,5.33,0,13-1,18.39-3.86,1.18-.68,1.26-1,1.26-4.83v-9.5c0-3.54,0-6.1.17-8.81.18-3.05.92-4.21,3-4.58A13.18,13.18,0,0,1,68.73,39C69.31,39,69.72,38.63,69.72,38.18Z"/><path class="cls-1" d="M111.24,61a7.23,7.23,0,0,1-2.2-.33c-1.24-.36-2.78-1.37-4.71-6.15-2.47-6.17-7.72-19.86-10.85-28-1.25-3.28-2.16-5.65-2.41-6.27C90.4,18.53,90.12,18,89.56,18s-.83.51-1.52,2.4L75.12,55.76c-1.09,3-2.19,4.86-4.55,5.17A16.13,16.13,0,0,1,69,61c-.47,0-.79.25-.79.62,0,.74.92.74,1.36.74,1.81,0,3.81-.08,5.13-.13l1.3,0c.25,0,.79,0,1.44.06,1,.05,2.17.11,3,.11s1.13-.4,1.13-.74-.11-.62-.85-.62H80.1c-.73,0-1.88-.37-1.88-1.37A11.79,11.79,0,0,1,79,56l3.41-10.06c.1-.26.21-.28.31-.28H95c.14,0,.17,0,.25.16l5.29,14a1.27,1.27,0,0,1,.05.95.38.38,0,0,1-.2.21.68.68,0,0,0-.61.67c0,.58.64.61,1.71.67h.27c2.53.07,5.71.11,8.94.11.94,0,1.42-.25,1.42-.74S111.8,61,111.24,61Zm-17-18H83.44v0l5-15.36a2.35,2.35,0,0,1,.16-.38,2.19,2.19,0,0,1,.16.39L94.18,43Z"/><path class="cls-1" d="M171.47,61a12,12,0,0,1-3.61-.5c-2.32-.76-2.67-3.91-2.88-5.79l-3.81-34.94c-.1-.9-.25-1.79-1-1.79s-.93.67-1.11,1.07l-16.48,35.2L125.47,19c-.28-.61-.57-1-1.11-1s-.83.88-.9,1.27l-4.1,37.1,0,.21c-.21,2-.41,4-2,4.27a7.31,7.31,0,0,1-1.65.16c-.42,0-.85.2-.85.57,0,.53.42.79,1.25.79,1,0,2.44-.07,3.51-.12l1.27-.05,1,0c1.13.05,2.83.13,4.27.13.39,0,1.3,0,1.3-.79,0-.32-.32-.57-.74-.57a10.36,10.36,0,0,1-2.11-.28,1.53,1.53,0,0,1-1.25-1.49c0-1,0-2,.06-2.88l2.22-25.73c1.35,3.05,6.77,14.66,7.27,15.65l.09.19c1.56,3.12,5.31,10.65,6.57,13l.13.24c1.08,2,1.33,2.53,1.89,2.53s.84-.45,1.74-2.35l14-29.79L160,58.79a4.09,4.09,0,0,1,0,1.75.65.65,0,0,0-.58.66c0,.58.62.74,1.85.85,2.17.18,8.33.34,9.53.34s1.48-.55,1.48-.79S172.07,61,171.47,61Z"/><path class="cls-1" d="M202,54c-.6,0-.71.64-.8,1.1-.39,2.3-1.05,3.37-2.44,4a16.5,16.5,0,0,1-5.45.61c-5.7,0-6.27-.79-6.43-4.48,0-.87,0-4.6,0-7.33,0-1.07,0-2,0-2.55V40.23c0-.1,0-.12.13-.12,1,0,6.68.12,8.25.29,2,.21,2.55,1,2.77,1.83a5.6,5.6,0,0,1,.22,1.83c0,.49.27.8.69.8.69,0,.69-.86.69-1.38s.11-2.5.23-3.68.26-2,.36-2.54a5.39,5.39,0,0,0,.11-.73c0-.67-.4-.74-.57-.74-.34,0-.58.27-1,.73l-.1.12c-.46.51-1.26.61-2.54.72-1,.09-5.38.12-9.21.13,0,0,0-.07,0-.31v-16c0-.24.05-.3.07-.3h0c.72,0,6.93.06,7.9.17,3,.33,3.52,1,3.88,1.8a5.83,5.83,0,0,1,.33,2c0,.85.4,1,.74,1s.56-.29.68-.87.15-1.69.21-2.67c0-.52.06-1,.08-1.17a15.84,15.84,0,0,1,.34-2,3.78,3.78,0,0,0,.12-.75c0-.7-.32-.8-.51-.8a1.17,1.17,0,0,0-.58.18,1.25,1.25,0,0,1-.3.12,15.1,15.1,0,0,1-2.43.28c-1.31.06-12.75.06-13.24.06l-.77,0c-1.24,0-3.81-.15-5.77-.15-.36,0-1.21,0-1.21.74a.67.67,0,0,0,.74.63,10.52,10.52,0,0,1,1.91.17c1.64.35,2.15,1,2.27,3,.12,1.84.12,3.47.12,12.48V45.32c0,5.43,0,10.11-.29,12.52-.25,1.81-.54,2.76-1.46,2.95a8.82,8.82,0,0,1-1.68.23.65.65,0,0,0-.74.63c0,.74.85.74,1.21.74,1.24,0,3.41-.09,4.71-.14l1,0c.5,0,1.22,0,2.21.08,2.25.1,6,.27,12.08.27,2.26,0,2.94,0,3.4-1.72a54.7,54.7,0,0,0,.76-5.68C202.64,54.74,202.64,54,202,54Z"/><path class="cls-1" d="M257.33,37.06a.68.68,0,0,0-.53.37l-.07.09c-.22.31-.5.41-1.34.48-.46,0-.92,0-1.49,0l-5.25,0V27.77c0-.08,0-.11,0-.09l5.17.1a2.34,2.34,0,0,1,2,.91,3.38,3.38,0,0,1,.28,1.16c0,.65.43.68.52.68s.45-.1.55-.6c0-.27.09-.95.12-1.54,0-.31,0-.58,0-.69a9.18,9.18,0,0,1,.2-1.15,2.34,2.34,0,0,0,.07-.46.52.52,0,0,0-.48-.58.71.71,0,0,0-.37.13.67.67,0,0,1-.19.09,4.66,4.66,0,0,1-1,.1l-.38,0c-.73,0-7,0-8.25,0l-.44,0c-.72,0-2.22-.08-3.36-.08-.2,0-.82,0-.82.55a.51.51,0,0,0,.55.48,6.13,6.13,0,0,1,1.08.09c.9.19,1.16.53,1.22,1.66s.07,3,.07,8.24v5.91c0,3.13,0,7.86-.17,9.25-.14,1-.29,1.52-.76,1.61a5.06,5.06,0,0,1-.95.13.49.49,0,0,0-.55.48c0,.55.62.55.82.55.72,0,2,0,2.74-.08l.55,0h.39c.75,0,2.32.09,3.74.09.74,0,.82-.39.82-.55a.49.49,0,0,0-.55-.48,14.17,14.17,0,0,1-1.48-.13c-.78-.1-1-.6-1.07-1.6-.16-1.4-.16-6.13-.16-9.26V39.83c1.28,0,5.24,0,6,.1a1.75,1.75,0,0,1,1.52,1,4.83,4.83,0,0,1,.18,1v.08a.52.52,0,0,0,.52.58c.52,0,.52-.6.52-.92s.07-1.58.13-2.22a14,14,0,0,1,.21-1.47,2.83,2.83,0,0,0,.06-.44C257.78,37.11,257.47,37.06,257.33,37.06Z"/><path class="cls-1" d="M556.52,10.15a35.09,35.09,0,0,1-1.18-6.33c0-.5,0-1.27-.69-1.27a6.17,6.17,0,0,0-.91.14,33,33,0,0,1-7.2.68H261.77c-1,0-4.16-.17-6.46-.41a7.63,7.63,0,0,1-2.75-.71,2.3,2.3,0,0,0-.88-.27c-.47,0-.75.72-1.05,1.65l0,.12c-.1.39-1.81,7.7-1.81,8.6s.53,1,.69,1c.5,0,.82-.3,1.08-1a13.92,13.92,0,0,1,1.37-2.5c1.24-1.86,3.06-2.42,8.14-2.5l11.85-.16v34.4c0,7.7,0,19.33-.41,22.75-.36,2.62-.79,4-2.16,4.27a12.32,12.32,0,0,1-2.4.32c-.69,0-.94.42-.94.77,0,.94,1.07.94,1.59.94,1.75,0,4.83-.12,6.67-.2l1.36,0,1,0c1.83.07,5.64.21,9.11.21,1.32,0,1.59-.51,1.59-.94S287,69,286.35,69a34.7,34.7,0,0,1-3.65-.33c-2.14-.29-2.69-1.72-3-4.26-.41-3.43-.41-15.06-.41-22.76V7.22l264,.16c7.06.15,11.48,1.74,11.81,4.25l.08.9c.07.94.18,1.66.94,1.66.2,0,.86-.1.86-1.35A13.93,13.93,0,0,0,556.52,10.15Z"/><path class="cls-1" d="M335.88,61.82a25.83,25.83,0,0,1-2.63-.23c-1.5-.2-1.89-1.22-2.07-3-.29-2.48-.29-7.29-.29-12.86V35.26c0-9.25,0-10.92.12-12.81.12-2.11.6-2.87,2-3.13a8,8,0,0,1,1.44-.17.68.68,0,0,0,.76-.64c0-.76-.86-.76-1.23-.76-1.27,0-3.5.09-4.83.14l-1,0-.79,0c-1.27,0-3.91-.15-5.93-.15-.37,0-1.23,0-1.23.76a.68.68,0,0,0,.76.64,11,11,0,0,1,2,.17c1.69.36,2.21,1.06,2.33,3.13.12,1.89.12,3.56.12,12.81v1.32H300a.35.35,0,0,1,0-.07V35.27c0-9.25,0-10.92.12-12.81.12-2.11.6-2.87,2-3.13a8,8,0,0,1,1.44-.17.68.68,0,0,0,.76-.64c0-.76-.86-.76-1.23-.76-1.27,0-3.5.09-4.84.14l-1,0-.79,0c-1.27-.05-3.92-.15-5.93-.15-.37,0-1.23,0-1.23.76a.68.68,0,0,0,.76.64,11,11,0,0,1,2,.17c1.69.36,2.21,1.06,2.33,3.13.12,1.89.12,3.56.12,12.81V45.72c0,5.57,0,10.38-.29,12.85-.25,1.82-.56,2.84-1.5,3a9.32,9.32,0,0,1-1.72.23.67.67,0,0,0-.76.64c0,.76.86.76,1.23.76,1.27,0,3.5-.09,4.84-.14l1,0,.7,0c1.33,0,4.09.15,6.6.15,1.07,0,1.23-.47,1.23-.76s-.2-.64-.76-.64a25.83,25.83,0,0,1-2.63-.23c-1.5-.2-1.89-1.22-2.07-3-.29-2.48-.29-7.29-.29-12.86V39.4h25.25c.08,0,.08,0,.08.08v6.24c0,5.57,0,10.38-.29,12.85-.26,1.86-.56,2.84-1.5,3a9.32,9.32,0,0,1-1.73.23.67.67,0,0,0-.76.64c0,.76.86.76,1.23.76,1.27,0,3.51-.09,4.84-.14l1,0,.7,0c1.33,0,4.09.15,6.6.15,1.07,0,1.23-.47,1.23-.76A.68.68,0,0,0,335.88,61.82Z"/><path class="cls-1" d="M386,61.82a14.28,14.28,0,0,1-2.27-.17c-1.58-.25-4-1-7.08-4.19S370.08,49.73,366,44.52l-1.59-2c4.83-4.52,7.09-8.89,7.09-13.75a10.72,10.72,0,0,0-4.22-8.31c-3.28-2.35-7.42-2.67-11-2.67-1.16,0-3.39.07-5,.12l-2,.06-.79,0c-1.27,0-3.91-.15-5.92-.15-.37,0-1.23,0-1.23.76a.68.68,0,0,0,.76.64,11,11,0,0,1,2,.17c1.86.39,2.22,1.28,2.33,3.13s.12,3.56.12,12.81V45.71c0,5.57,0,10.38-.29,12.85-.26,1.86-.56,2.84-1.5,3a9.32,9.32,0,0,1-1.72.23.67.67,0,0,0-.76.64c0,.76.86.76,1.23.76,1.52,0,4.38-.13,5.33-.17H349l.71,0c1.33,0,4.09.15,6.6.15,1.07,0,1.23-.47,1.23-.76s-.2-.64-.76-.64a25.83,25.83,0,0,1-2.63-.23c-1.5-.2-1.89-1.22-2.07-3-.29-2.48-.29-7.29-.29-12.86V44.28c0-.19,0-.19.13-.2l7.31.12a.67.67,0,0,1,.55.25c.5.65,1.3,1.76,2.23,3,1.25,1.72,2.81,3.87,4.24,5.75l.75,1c3,3.93,4.94,6.52,7.35,7.81,1.64.88,3.21,1.16,6.49,1.16h4.22c.72,0,1.71,0,1.71-.76A.81.81,0,0,0,386,61.82ZM351.78,21a.42.42,0,0,1,.27-.44,17.38,17.38,0,0,1,3.9-.35c6.26,0,10,4.34,10,11.6,0,4.08-1.31,7.41-3.5,8.92a7.48,7.48,0,0,1-4.29,1.08c-2.52,0-5.25-.41-6.09-.91a.5.5,0,0,1-.28-.47V21Z"/><path class="cls-1" d="M478.52,17.75c-1.61,0-3,.08-4,.13-.49,0-.86.05-1.08.05l-1.27-.05c-1.24-.05-3.11-.13-4.9-.13-.55,0-1.47,0-1.47.7,0,.46.25.7.76.7a15.12,15.12,0,0,1,2.84.29c1.61.42,2.05,1.52,2.11,5.38l.64,29.45c-1-1.08-2.68-2.91-4.72-5.14-2.65-2.9-5.94-6.52-9-9.84-9.19-9.84-18-19.37-18.9-20.38-.15-.15-.33-.35-.53-.57-.77-.85-1.31-1.42-1.75-1.42-.8,0-.94,1-.94,3.25l-.06,34c0,5.43-.32,6.92-1.59,7.28a8.33,8.33,0,0,1-2.35.34c-.56,0-.76.33-.76.64,0,.76.8.76,1.23.76,1.86,0,3.64-.09,4.71-.14l1,0,.87,0c1.12.05,3,.14,5.43.14.4,0,1.35,0,1.35-.76,0-.31-.2-.64-.76-.64a13.06,13.06,0,0,1-2.89-.34c-1.3-.39-2-1.52-2.12-6.63l-.75-27.68c1.8,2,8.12,9.07,15,16.48,6.31,6.79,14.87,15.52,15.51,16.1,3.3,3.3,3.93,3.88,4.53,3.88s.82-.5.82-4.5l.12-34.81c0-3.61.25-4.65,2-5a5,5,0,0,1,1.36-.17c.64,0,.93-.35.93-.7C479.87,17.75,479,17.75,478.52,17.75Z"/><path class="cls-1" d="M512.53,54.64c-.61,0-.73.65-.81,1.13-.4,2.36-1.08,3.46-2.5,4.06s-4.06.63-5.59.63c-5.86,0-6.45-.81-6.61-4.6,0-.89,0-4.73,0-7.53,0-1.1,0-2,0-2.62V40.48c0-.12,0-.14.13-.14,1,0,6.87.12,8.47.3,2.1.22,2.62,1.07,2.85,1.88a5.67,5.67,0,0,1,.23,1.88c0,.49.27.81.7.81.7,0,.7-.88.7-1.41,0-.38.11-2.56.24-3.78s.27-2.05.37-2.61a4.35,4.35,0,0,0,.11-.74c0-.68-.4-.76-.58-.76-.35,0-.59.28-1,.75l-.1.12c-.44.49-1.13.62-2.61.74-1,.09-5.52.12-9.46.13,0,0,0-.07,0-.32V20.94c0-.26,0-.31.07-.31.71,0,7.12.06,8.11.18,3.1.34,3.62,1,4,1.85a6.16,6.16,0,0,1,.33,2c0,.87.41,1,.76,1s.58-.3.69-.89.16-1.72.22-2.71c0-.55.06-1,.08-1.22a16.5,16.5,0,0,1,.35-2.06,4,4,0,0,0,.13-.76c0-.71-.33-.82-.52-.82a1.32,1.32,0,0,0-.59.18,1.17,1.17,0,0,1-.31.12,15.65,15.65,0,0,1-2.5.29c-1.34.06-13.09.06-13.59.06l-.79,0c-1.27,0-3.91-.15-5.92-.15-.37,0-1.23,0-1.23.76a.68.68,0,0,0,.76.64,11,11,0,0,1,2,.17c1.86.39,2.22,1.28,2.33,3.13s.12,3.56.12,12.81V45.71c0,5.57,0,10.38-.29,12.85-.26,1.86-.56,2.84-1.5,3a9.32,9.32,0,0,1-1.72.23.67.67,0,0,0-.76.64c0,.76.86.76,1.23.76,1.27,0,3.5-.09,4.83-.14l1,0c.52,0,1.25,0,2.27.08,2.3.1,6.16.28,12.4.28,2.31,0,3,0,3.48-1.76a57.44,57.44,0,0,0,.78-5.83C513.17,55.37,513.17,54.64,512.53,54.64Z"/><path class="cls-1" d="M535.65,37.23,534,35.93c-5.74-4.7-7.14-6.62-7.14-9.76,0-4,2.82-6.61,7-6.61,5,0,6.69,2.1,7.18,3a10.35,10.35,0,0,1,.74,2.87c.05.43.13,1,.75,1s.7-1,.7-1.65c0-3.17.15-5.05.21-5.85,0-.23,0-.38,0-.44,0-.62-.47-.7-.88-.7a9.62,9.62,0,0,1-2-.29,23.49,23.49,0,0,0-5.59-.6c-7.64,0-12.58,4.31-12.58,11,0,4,1.33,7.78,7.83,13.11l2.67,2.2c5.28,4.36,6.73,6.61,6.73,10.48s-2.82,7.62-8.21,7.62c-2.21,0-7.45-.57-8.52-5.84a10.3,10.3,0,0,1-.17-2.14c0-.35,0-.93-.7-.93s-.71.78-.75,1.21c0,.18,0,.41,0,.69-.09,1.2-.25,3.21-.25,5.62,0,1.57,0,2,1,2.51a18.11,18.11,0,0,0,8.08,1.63,15.85,15.85,0,0,0,9.13-2.55,12.58,12.58,0,0,0,5.17-10.09C544.43,46.82,543,43,535.65,37.23Z"/><path class="cls-1" d="M406.05,16.92c-17.25,0-23.68,14.42-23.68,23.51,0,11.38,7.3,23.62,23.33,23.62,13.9,0,24-10.34,24-24.58C429.68,26,420.18,16.92,406.05,16.92Zm17.36,24.22c0,13.64-6.83,18-11.72,19.45V20.67C418,23.17,423.41,29.79,423.41,41.14ZM410.16,20.43V60.94a15.67,15.67,0,0,1-2.86.28c-.33,0-.64,0-1,0V19.53a16.42,16.42,0,0,1,4.71.9Zm-11,38.84c-6.48-3.37-10.58-10.87-10.58-20.51,0-9.2,3.93-15.68,10.58-18.15Zm1.53-39.14a18.51,18.51,0,0,1,4.11-.59V61.05A17.49,17.49,0,0,1,400.69,60Z"/><path class="cls-1" d="M227.89,27.09c-9.85,0-13.52,8.23-13.52,13.42,0,6.5,4.17,13.49,13.32,13.49,7.93,0,13.69-5.9,13.69-14C241.38,32.27,236,27.09,227.89,27.09Zm-3.47,24.17c-3.85-1.79-6.3-6.1-6.3-11.69,0-5.32,2.35-9,6.3-10.29Zm.9-22.22a11.74,11.74,0,0,1,2.11-.24V52.09a9.67,9.67,0,0,1-2.11-.47Zm3-.21a9.4,9.4,0,0,1,2.32.48v22.6a8.92,8.92,0,0,1-2,.25h-.28Zm3.21,22.81v-22c3.33,1.54,6.06,5.19,6.06,11.25C237.59,48.11,234.2,50.71,231.53,51.64Z"/><path class="cls-1" d="M549.77,18.2v.52h-1.48V22.6h-.6V18.72h-1.48V18.2Z"/><path class="cls-1" d="M550.31,18.2h.85l1.27,3.72,1.26-3.72h.85v4.4H554V20c0-.09,0-.24,0-.45s0-.43,0-.67l-1.26,3.71h-.59l-1.27-3.71V19c0,.11,0,.27,0,.49s0,.38,0,.49v2.6h-.57V18.2Z"/></svg>