<?xml version="1.0" encoding="utf-8"?>
<!-- Generator: Adobe Illustrator 23.0.2, SVG Export Plug-In . SVG Version: 6.00 Build 0)  -->
<svg version="1.1" xmlns="http://www.w3.org/2000/svg" xmlns:xlink="http://www.w3.org/1999/xlink" x="0px" y="0px"
	 viewBox="0 0 1190.55 242.11" style="enable-background:new 0 0 1190.55 242.11;" xml:space="preserve">
<style type="text/css">
	.st0{clip-path:url(#SVGID_2_);fill:#FFFFFF;}
	.st1{display:none;}
	.st2{display:inline;fill:none;}
	.st3{display:inline;fill:#FFFFFF;}
	.st4{font-family:'TrajanBold';}
	.st5{font-size:100px;}
</style>
<g id="Layer_1">
	<g>
		<defs>
			<rect id="SVGID_1_" x="171" y="34.02" width="849.79" height="188.62"/>
		</defs>
		<clipPath id="SVGID_2_">
			<use xlink:href="#SVGID_1_"  style="overflow:visible;"/>
		</clipPath>
		<path class="st0" d="M233.63,200.15c0.89,0,1.7-0.16,2.42-0.47c0.72-0.32,1.32-0.75,1.82-1.3c0.5-0.56,0.87-1.19,1.13-1.9
			c0.25-0.72,0.38-1.48,0.38-2.28c-0.01-1.84-0.57-3.28-1.7-4.34c-1.13-1.05-2.89-1.58-5.28-1.58l-4.88,0.01
			c0,1.03,0.01,2.17,0.02,3.41c0.01,1.23,0.04,2.43,0.07,3.57c0.03,1.15,0.07,2.17,0.1,3.06c0.04,0.89,0.08,1.5,0.12,1.83
			L233.63,200.15z M232.83,186.08c0.7,0,1.39-0.11,2.05-0.33c0.67-0.21,1.26-0.54,1.78-0.96c0.52-0.43,0.93-0.95,1.23-1.59
			c0.3-0.64,0.45-1.37,0.45-2.19c0-0.72-0.12-1.41-0.36-2.06c-0.25-0.64-0.63-1.21-1.14-1.7s-1.18-0.87-1.99-1.14
			c-0.82-0.27-1.79-0.41-2.93-0.41l-4.44,0.01l0.02,10.37L232.83,186.08z M219.31,202.12l3.29-2.36l-0.04-23.45l-3.65-2.52l0-0.32
			l13.99-0.03c1.8,0,3.39,0.21,4.76,0.63c1.37,0.42,2.52,0.95,3.44,1.61c0.92,0.66,1.62,1.39,2.1,2.21
			c0.47,0.81,0.71,1.61,0.71,2.39c0,1.03-0.23,1.95-0.7,2.74c-0.46,0.8-1.09,1.47-1.86,2.02c-0.77,0.56-1.66,0.99-2.64,1.3
			c-0.99,0.31-2,0.51-3.04,0.59c1.65,0.14,3.09,0.44,4.34,0.9c1.25,0.47,2.28,1.05,3.12,1.73c0.83,0.68,1.46,1.44,1.87,2.28
			c0.41,0.83,0.62,1.66,0.62,2.51c0.01,1.06-0.27,2.07-0.82,3.04c-0.55,0.97-1.28,1.83-2.2,2.57c-0.92,0.75-1.99,1.34-3.21,1.78
			c-1.22,0.45-2.52,0.67-3.89,0.67l-16.15,0.03L219.31,202.12z"/>
		<path class="st0" d="M257.19,202.05l3.4-2.53c0-0.75-0.01-1.53-0.01-2.34c0-0.81-0.01-1.6-0.03-2.37
			c-0.02-0.76-0.04-1.47-0.07-2.13c-0.02-0.65-0.05-1.2-0.09-1.66c-0.26-0.47-0.6-1.09-1.03-1.85c-0.43-0.77-0.92-1.6-1.43-2.52
			c-0.52-0.92-1.07-1.87-1.64-2.86c-0.57-0.99-1.12-1.94-1.67-2.88c-0.53-0.93-1.04-1.78-1.51-2.55c-0.47-0.77-0.85-1.4-1.15-1.89
			l-3.62-2.73l0-0.32l13.04-0.02l0.03,0.35c-0.64,0.45-1.29,0.92-1.94,1.42c-0.64,0.5-1.27,1.03-1.88,1.61
			c2.02,3.66,4.17,7.29,6.42,10.89c1.21-1.88,2.38-3.76,3.49-5.63c1.11-1.88,2.19-3.73,3.22-5.55c-1.06-0.88-2.22-1.79-3.48-2.76
			v-0.35l10.35-0.02l0,0.38l-2.99,2.12c-0.19,0.22-0.53,0.69-1.01,1.43c-0.48,0.74-1.02,1.6-1.62,2.62
			c-0.6,1.01-1.25,2.08-1.92,3.22c-0.67,1.13-1.32,2.21-1.92,3.25c-0.61,1.03-1.15,1.94-1.61,2.72c-0.47,0.78-0.79,1.33-0.97,1.62
			c0,0.51,0,1.13-0.01,1.87c-0.01,0.73-0.01,1.51-0.01,2.31c0,0.8,0,1.61,0.02,2.41c0.01,0.8,0.03,1.53,0.05,2.2l3.47,2.52l0,0.32
			l-11.91,0.02L257.19,202.05z"/>
		<path class="st0" d="M808.25,199.34c-5.53-0.02-10.36,0.04-14.32-0.15l-0.05-31.75l4.92-3.14l-0.04-0.43l-4.86-0.03l-6.94,0.01
			l-4.46,0.02l0.02,0.4l4.41,3.19l0.07,31.68l-4.43,3.17l-0.04,0.45l29.91-0.06l0.01-8.58l-0.53,0.01L808.25,199.34z M841.3,164.21
			l0.03-0.43l-4.52,0l-6.72,0.02l-4.54,0.01l0.02,0.42l4.53,3.17l0,31.7l-4.68,3.17l-0.04,0.42l4.75,0.01l6.74-0.02l4.63-0.03
			l0.02-0.4l-4.69-3.14l-0.02-17.03l-0.02-14.71L841.3,164.21z M753.66,185.36l-6.53-16.71l-6.35,16.76L753.66,185.36z
			 M766.31,198.65l4.46,3.67l-0.02,0.45l-16.99,0l0.07-0.43l5-3.63l-4.05-10.38c-4.74-0.05-9.74-0.09-15.11,0l-3.96,10.4l4.98,3.64
			l-0.03,0.42l-13.22,0.01l0-0.43l4.38-3.63l14.08-35.67l5.91-0.01L766.31,198.65z M843.9,180.05c7-6.57,11.88-10.93,14.18-12.77
			l5.91-3.09l0.02-0.42l-13.15,0.02v0.41l1.95,2.98c-5.44,5.41-11.42,11.02-16,14.91l15.72,17.11l-1.62,3.02l0.03,0.44l14.13-0.01
			l0.02-0.43l-3.06-3.01C854.95,191.89,848.91,185.47,843.9,180.05 M966.27,194.43l3.42-0.02l0.05,8.12l1.51-0.03l-0.04-8.08
			l3.39-0.02l0.03-1.41l-8.38,0.01L966.27,194.43z M905.15,199.4l-15.93-0.04l-0.02-15.4c2.95-0.13,7.03-0.16,12.24-0.17l3.03,4.51
			l0.47,0.03l-0.02-12.13l-0.43-0.01l-2.99,4.54c-7.01-0.01-11.06-0.02-12.38-0.1c0.01-4.65-0.01-9.21-0.06-13.47
			c4.84-0.26,10.14-0.34,15.84-0.15l3.27,4.3l0.4-0.01l0.01-7.58l-30.59,0.02l-0.01,0.47l4.44,3.14l0.05,31.75l-4.43,3.1l-0.02,0.42
			l31.38-0.02l-0.01-8.53l-0.46,0L905.15,199.4z M711.28,154.57l4.6,3.52L705.4,193.9c-0.63-2.88-4.62-16.19-10.47-35.45l4.28-3.8
			l-0.02-0.49l-16.7,0.06l0.01,0.4l4.31,3.63l-10.44,35.36l-10.4-35.38l4.56-3.59l0-0.45l-16.1,0l0.01,0.46l3.88,3.67
			c7.38,23.21,12.08,38.23,13.84,45.11l4.79-0.04c3.13-10.94,7.12-24.4,11.93-40.43c4.96,16.24,9.27,29.67,12.22,40.42l5.08,0.01
			c3.01-11.14,7.55-26.19,13.67-45.12l3.91-3.7l0.02-0.43l-12.49-0.01L711.28,154.57z M951.72,174.31c0.02-4.19-3.24-7.79-8.59-7.73
			c-0.9-0.01-3.87,0.08-6.1,0.2l-0.08,16c1.3,0.05,3.41,0.07,4.4,0.07C948.06,182.87,951.76,179.81,951.72,174.31 M962.62,202.15
			l-0.05,0.4l-8.9,0.02l-9.24-15.3c-0.73-1.27-1.61-1.85-3.24-1.79c-0.71-0.02-2.36-0.03-4.27,0.1l0.16,13.56l4.5,3.04l-0.05,0.46
			l-4.71-0.04l-6.53,0.02l-4.71-0.01l0.01-0.43l4.72-3.14l-0.03-31.63l-4.45-3.24l0.01-0.43l8.63-0.02l3.49-0.04l5.92,0.02
			c9.34,0,15.56,4.3,15.6,10.43c-0.02,5.86-5.65,10.09-12.77,10.23c2.63,0.29,4.22,1.54,5.56,3.75l6.14,9.63
			C959.29,199.11,961.86,201.63,962.62,202.15 M985.35,192.99l-3.69,5.82l-3.67-5.8l-1.54-0.02l0.04,9.51l1.52,0.01l-0.03-6.74
			l3.71,5.65l3.68-5.7l0.04,6.79l1.51-0.02l-0.03-9.52L985.35,192.99z M419.39,164.28l-4.42,0l-0.02,0.41l4.44,3.2l0.03,13.12
			l-21.08,0.06l-0.02-13.18l4.43-3.19l-0.02-0.42l-4.41-0.02l-6.73,0.03l-4.44,0.03l0.01,0.41l4.43,3.12l0.05,31.73l-4.44,3.16
			l0.02,0.43l4.42-0.01l6.72,0l4.41-0.02l0.03-0.42l-4.43-3.13l-0.05-15.34l21.12-0.01l0,15.32l-4.44,3.15l0.02,0.43l4.42,0
			l6.73-0.02l4.43,0l0-0.43l-4.45-3.17l-0.02-31.67l4.44-3.2l0.02-0.41l-4.43,0L419.39,164.28z M297.87,154.8l6.1,3.86l0.09,46.47
			c-0.04,11.47-6.89,14.66-10.56,14.67c-0.54-0.01-1.05-0.06-1.05-0.06s1.01-0.91,0.99-2.78c0.03-1.82-1.55-3.23-3.49-3.24
			c-1.74,0-3.77,1.53-3.77,4.13c0.06,2.88,2.89,4.81,6.31,4.77c11.04,0.01,18.78-13.83,18.76-22.71l0.03-41.28l5.36-3.83l0.01-0.46
			l-18.81,0.02L297.87,154.8z M488.27,164.6l-0.02-0.41l-13.29,0l-0.02,0.44l5.19,3.83c0.16,7.33,0.26,15.93,0.28,25.65
			c-12.62-16.61-21.15-26.04-23.54-29.93l-11.53,0.03l0.02,0.41l5.4,3.73c0.42,12.53,0.47,22.71,0.01,30.6l-4.49,3.75l0,0.41
			l13.3,0.02l-0.01-0.44l-5.04-3.71c-0.3-9.17-0.46-18.14-0.43-27.04l23.02,28.9c0.7,0.86,1.61,1.86,1.57,2.55l5.38-0.01
			c-0.7-9.93-0.77-21.52-0.36-34.91L488.27,164.6z M366.24,183.68c-0.08-10.56-5.91-18.53-14.57-18.5c-8.7,0.09-14.33,8-14.34,18.54
			c0.04,12,6.54,18.44,14.41,18.43C359.63,202.12,366.24,195.56,366.24,183.68 M373.42,183.65c0.02,11.81-9.58,21.4-21.37,21.4
			l-0.74,0.03c-11.82,0.03-21.4-9.57-21.44-21.38c-0.02-11.81,9.55-21.39,21.35-21.41l0.8,0
			C363.81,162.27,373.39,171.85,373.42,183.65 M544.59,164.55l-0.06-0.44l-13.29,0.07l0.01,0.4l5.21,3.83
			c0.17,7.29,0.29,15.95,0.3,25.65c-12.61-16.58-21.16-26.04-23.57-29.89l-11.5-0.01l-0.02,0.45l5.4,3.7
			c0.47,12.53,0.51,22.73,0.05,30.59l-4.53,3.72l0.01,0.44l13.3,0.01l0.03-0.44l-5.04-3.72c-0.3-9.18-0.46-18.16-0.47-27
			l23.03,28.84c0.7,0.89,1.58,1.9,1.59,2.54l5.36,0.03c-0.72-9.93-0.74-21.51-0.36-34.9L544.59,164.55z M620.44,199.66l-15.93,0.06
			l-0.01-15.44c2.92-0.1,7.03-0.11,12.27-0.16l2.99,4.49l0.43,0.03l-0.01-12.12l-0.41-0.02l-3.04,4.55
			c-6.94-0.02-11.01-0.02-12.35-0.09c0.01-4.7,0.02-9.26-0.02-13.54c4.82-0.2,10.11-0.27,15.79-0.11l3.27,4.32l0.43,0.01l0-7.57
			l-30.55,0l0.01,0.43l4.46,3.16l0,31.68l-4.42,3.18l0.01,0.46l31.31-0.04l0.01-8.54h-0.44L620.44,199.66z M571.75,199.4l4.69,3.17
			l0,0.42l-4.68,0l-6.7,0.01l-4.67,0l-0.05-0.46l4.71-3.15l-0.07-31.68l-4.45-3.18l-0.06-0.45l4.52,0.04l6.69-0.05l4.54,0.03
			l0.01,0.45l-4.53,3.12L571.75,199.4z"/>
		<path class="st0" d="M362.89,120.99c-0.08-1.04-0.14-2.72-0.18-5.05c-0.04-2.33-0.09-5.1-0.13-8.32
			c-0.05-3.22-0.09-6.82-0.13-10.81c-0.05-3.99-0.08-8.19-0.11-12.59c-0.03-4.4-0.05-8.94-0.05-13.62
			c-0.01-4.67-0.02-9.32-0.03-13.93c1.79-1.54,3.29-2.8,4.49-3.78c1.2-0.98,2.3-1.72,3.29-2.22l0-0.69l-27.46,0.05l0,0.69
			c1.3,0.58,2.63,1.42,3.99,2.52c1.36,1.1,2.84,2.31,4.45,3.64c0.05,4.32,0.08,8.69,0.11,13.12c0.03,4.43,0.04,8.97,0.05,13.62
			l0,0.29l-37.7,0.07l0-0.22c-0.01-3.91-0.02-8.08-0.02-12.53c-0.01-4.45-0.04-9.2-0.08-14.27c1.76-1.37,3.37-2.6,4.84-3.69
			c1.47-1.08,2.76-1.92,3.87-2.5l0-0.69l-28.79,0.05l0,0.69c1.22,0.58,2.54,1.38,3.96,2.39c1.42,1.02,2.99,2.25,4.71,3.7l0.35,64.38
			l-8.19,5.94l0,0.69l28.27-0.05l0-0.69l-8.38-5.59c-0.12-1.58-0.21-4.97-0.28-10.19c-0.07-5.21-0.13-12.39-0.18-21.53l0-0.19
			l37.65-0.07c0.06,10.16,0.08,20.68,0.06,31.54l-8.02,6l0,0.69l28.1-0.05l0-0.69L362.89,120.99z"/>
		<path class="st0" d="M401.25,120.54l-0.35-63.45c0.69-0.58,1.43-1.17,2.23-1.75c0.8-0.58,1.61-1.15,2.43-1.69
			c0.82-0.54,1.63-1.07,2.43-1.59c0.8-0.52,1.53-1.01,2.18-1.47l0-0.69l-29.53,0.05l0,0.69c2.79,1.95,5.78,4.06,8.96,6.34
			c0.14,12.01,0.23,23.25,0.27,33.72c0.04,10.47,0.07,20.44,0.08,29.92l-9.79,6.44l0,0.69l30.45-0.06l0-0.69L401.25,120.54z"/>
		<path class="st0" d="M457.41,123.52c-1.72-1.18-3.45-2.43-5.17-3.76L451.78,56c1.38-0.09,3.36-0.16,5.96-0.23
			c2.6-0.07,6.02,0,10.26,0.2c1.69,2.24,3.18,4.23,4.49,5.98c1.3,1.74,2.41,3.63,3.33,5.66l0.75,0c-0.12-3.99-0.21-7.43-0.25-10.32
			c-0.04-2.89-0.05-5.39-0.01-7.51l-60.26,0.11l-0.19,18.76l0.75,0c0.91-2.12,2.02-4.19,3.32-6.21c1.29-2.02,2.78-4.15,4.46-6.4
			c4.24-0.21,7.63-0.36,10.15-0.42c2.52-0.07,4.45-0.04,5.79,0.08c0.1,12.63,0.18,24.34,0.24,35.12c0.06,10.78,0.06,20.77,0,29.95
			l-9.05,6.19l0,0.68l31.08-0.06l0-0.69C460.85,125.83,459.13,124.7,457.41,123.52"/>
		<path class="st0" d="M536.02,110.38c-0.3,0.67-0.64,1.34-1,2.03c-0.36,0.68-0.8,1.44-1.32,2.28c-0.52,0.83-1.13,1.79-1.86,2.87
			c-0.72,1.08-1.6,2.35-2.63,3.81c-4.36,0.13-8.3,0.21-13.18,0.24c-4.87,0.03-7.72-0.04-12.58-0.19
			c-0.25-11.38-0.39-22.02-0.4-31.91c2.67-0.09,4.38-0.17,7.8-0.26c3.42-0.09,4.85-0.13,9.67-0.14l5.47,9.09l0.69,0l-0.04-23.56
			l-0.69,0l-5.09,8.42c-2.71,0.13-9.63,0.4-11.56,0.43c-1.93,0.03-5.93-0.04-6.54-0.08c-0.21-11.47-0.23-20.75-0.05-27.86
			c2.22-0.09,2.4-0.16,4.58-0.23c2.18-0.07,4.39-0.11,6.65-0.14c2.26-0.02,4.57-0.03,6.94-0.01c2.37,0.02,4.2,0.07,6.84,0.14
			l6.73,9.4l0.63,0c-0.12-3.49-0.2-6.47-0.25-8.94c-0.04-2.47-0.05-4.5-0.01-6.08l-51.67,0.1l0,0.68l7.64,5.6
			c0.23,3.16,0.41,10.09,0.53,20.79c0.11,10.7,0.17,25.19,0.17,43.47l-8.13,6.56l0,0.69l53.39-0.1l-0.03-17.08L536.02,110.38z"/>
		<path class="st0" d="M943.74,109.61c-0.31,0.67-0.64,1.34-1,2.03c-0.36,0.68-0.8,1.44-1.32,2.28c-0.52,0.83-1.13,1.79-1.86,2.87
			c-0.72,1.08-1.6,2.35-2.63,3.81c-4.36,0.13-8.3,0.21-13.18,0.24c-4.87,0.03-7.72-0.04-12.58-0.19
			c-0.25-11.38-0.39-22.02-0.4-31.91c2.67-0.09,4.38-0.17,7.8-0.26c3.42-0.09,4.85-0.13,9.67-0.14l5.47,9.09l0.69,0l-0.04-23.56
			l-0.69,0l-5.09,8.42c-2.71,0.13-9.63,0.4-11.56,0.43c-1.93,0.02-5.93-0.04-6.54-0.08c-0.21-11.47-0.23-20.75-0.05-27.86
			c2.22-0.09,2.4-0.16,4.58-0.23c2.18-0.07,4.4-0.11,6.65-0.14c2.26-0.03,4.57-0.03,6.94-0.01c2.37,0.02,4.2,0.07,6.84,0.14
			l6.73,9.4l0.63,0c-0.12-3.49-0.2-6.47-0.25-8.94c-0.04-2.47-0.05-4.5-0.01-6.08L890.87,49l0,0.69l7.64,5.59
			c0.23,3.16,0.41,10.09,0.53,20.78c0.11,10.7,0.17,25.19,0.17,43.47l-8.13,6.56l0,0.69l53.39-0.1l-0.03-17.08L943.74,109.61z"/>
		<path class="st0" d="M699.95,92.49c2.44-7.2,8.53-23.39,10.5-28.59c2.75,7.37,6.86,19.61,9.78,28.55
			C712.13,92.72,707.75,92.73,699.95,92.49 M741.31,120.04c-5.04-13.2-22.35-60.71-26.94-73.23l-3.09,0.01
			c-4.6,12.53-8.76,22.57-13.35,35.25c-4.35,12-9.02,24.73-13.73,37.83c-1.83,1.69-2.93,2.48-4.02,3.56
			c-1.09,1.08-2.18,2.1-3.29,3.06l0,0.69l22.17-0.04l0-0.69l-8.26-6.84c1.14-3.66,5.32-15.56,7.34-21.27
			c4.89-0.22,6.28-0.31,10.89-0.3c4.61,0.01,8.91,0.14,13.35,0.38c1.34,3.9,6.22,18.1,7.35,21.73l-8.4,6.25l0,0.69l28.19-0.05
			l0-0.69L741.31,120.04z"/>
		<path class="st0" d="M808.72,108.74l-0.75,0c-0.95,1.79-2.03,3.67-3.23,5.65c-1.2,1.98-2.54,4.09-4.03,6.33
			c-5.39,0.22-10.27,0.27-14.65,0.15c-4.38-0.12-8.31-0.27-11.78-0.48c-0.12-4.15-0.2-8.77-0.23-13.84
			c-0.03-5.07-0.05-10.39-0.06-15.96c-0.01-5.57,0-11.3,0.03-17.2c0.03-5.9,0.03-11.76,0.02-17.58l9.16-5.94l0-0.69l-29.3,0.05
			l0,0.69l8.38,5.9c0.05,6.36,0.1,12.53,0.15,18.51c0.05,5.98,0.08,11.69,0.09,17.11c0.01,5.42,0.01,10.53,0,15.33
			c-0.01,4.8-0.07,9.22-0.18,13.25l-8.42,6.31l0,0.69l55.05-0.1c-0.16-4.07-0.26-7.57-0.31-10.5
			C808.63,113.51,808.65,110.95,808.72,108.74"/>
		<path class="st0" d="M865.42,105.43c-6.36-7.36-12.36-14.82-18.8-23.2c4.04-4.41,7.94-8.55,11.89-12.61
			c4.04-4.15,7.94-8.2,11.98-12.04c2.98-1.83,5.56-3.4,7.73-4.69c2.17-1.29,4.05-2.35,5.61-3.19l0-0.69l-21.55,0.04l0,0.75
			c0.46,0.46,2.56,2.39,3.46,3.62c-0.42,0.54-4.16,4.26-5.22,5.42c-1.07,1.16-2.37,2.54-3.89,4.12c-1.53,1.58-3.22,3.32-5.07,5.21
			c-1.85,1.89-3.75,3.82-5.7,5.78c-1.95,1.96-3.9,3.89-5.87,5.81c-1.97,1.91-3.81,3.68-5.52,5.31c-0.05-5.03-0.08-10.02-0.09-14.99
			c-0.01-4.96,0-9.73,0.03-14.3l8.47-6l0-0.69l-28.67,0.05l0,0.69l8.84,6.28l0.35,64.19l-8.36,5.94l0,0.69l28.27-0.05l0-0.69
			c-3.33-2.28-6.09-4.33-8.27-6.15c-0.16-4.28-0.29-9.35-0.37-15.21c-0.09-5.86-0.16-12.05-0.21-18.57
			c1.69,1.66,4.86,5.33,9.54,11.01c4.67,5.69,10.96,13.36,18.85,23.03l-3.66,5.93l0,0.62l25.23-0.05l0-0.69
			C878.12,119.69,871.78,112.79,865.42,105.43"/>
		<path class="st0" d="M982.76,87.16c-0.54,0-1.21-0.01-2.01-0.03c-0.8-0.02-1.64-0.04-2.52-0.06c-0.88-0.02-1.73-0.04-2.55-0.06
			c-0.82-0.02-1.48-0.03-1.98-0.03v-0.13l-0.01-32.22c1.6-0.21,3.26-0.36,4.96-0.45c1.7-0.09,3.26-0.13,4.67-0.13
			c2.68-0.01,5.09,0.39,7.26,1.2c2.16,0.81,4.01,1.93,5.54,3.35c1.53,1.43,2.72,3.12,3.57,5.07c0.84,1.95,1.27,4.07,1.27,6.35
			c0.01,5.4-1.51,9.6-4.56,12.6C993.34,85.65,988.79,87.15,982.76,87.16 M1020.79,125.86c-0.42-0.04-0.98-0.37-1.69-0.99
			c-0.71-0.62-1.46-1.38-2.24-2.27c-0.79-0.89-1.56-1.84-2.33-2.86c-0.77-1.02-1.4-1.98-1.9-2.89c-0.54-0.95-1.28-2.28-2.24-3.98
			c-0.96-1.7-1.95-3.47-2.96-5.29c-1.02-1.83-1.99-3.57-2.93-5.23c-0.94-1.66-1.68-2.95-2.21-3.86c-0.88-1.45-1.74-2.66-2.59-3.61
			c-0.84-0.95-1.7-1.74-2.56-2.36c-0.86-0.62-1.75-1.1-2.67-1.43c-0.92-0.33-1.89-0.62-2.93-0.87c3.55-0.3,5.39-1.02,8.2-2.16
			c2.81-1.15,5.18-2.64,7.13-4.47c1.95-1.83,3.44-3.93,4.49-6.3s1.57-4.93,1.56-7.67c0-2.37-0.55-4.78-1.65-7.23
			c-1.09-2.45-2.74-4.68-4.94-6.69c-2.2-2.01-4.99-3.66-8.35-4.94c-3.37-1.28-7.34-1.92-11.93-1.91l-9.55,0.02l-22.71,0.04l0,0.69
			l8.21,5.97c0.14,10.31,0.26,20.88,0.38,31.72c0.11,10.84,0.13,21.79,0.03,32.85l-8.59,5.87l0,0.69l29.24-0.06l0-0.69
			c-2.72-1.74-4.79-3.09-6.23-4.04c-1.43-0.95-2.36-1.59-2.78-1.93c-0.2-6.56-0.34-15.71-0.39-27.42c0.53-0.08,1.37-0.16,2.52-0.22
			c1.15-0.06,2.6-0.1,4.36-0.1c1.72,0,3.11,0.28,4.16,0.83c1.05,0.56,2.06,1.54,3.02,2.96c1.65,2.9,3.27,5.76,4.86,8.56
			c1.59,2.8,3.1,5.51,4.52,8.13c1.42,2.62,2.76,5.1,4.03,7.44c1.26,2.35,2.41,4.49,3.45,6.44l16.23-0.03L1020.79,125.86z"/>
		<path class="st0" d="M274.86,76.33c2.88-9.98,6.11-21.2,9.71-33.64c2.07-1.99,3.73-3.59,4.99-4.79c1.25-1.2,2.14-1.99,2.67-2.39
			l0-0.75l-23.46,0.04l0,0.82c1.3,0.94,2.68,1.92,4.13,2.94c1.45,1.02,2.8,2.05,4.06,3.09c-2.68,9.66-5.11,18.38-7.26,26.18
			c-2.16,7.79-4.03,14.58-5.61,20.35c-1.58,5.78-2.86,10.5-3.85,14.19c-0.98,3.69-1.15,3.98-1.44,5.43l-23.4-72.93l-2.74,0.01
			c-2.11,7.12-11.75,39.68-13.34,45.26c-1.58,5.58-3.04,10.8-4.39,15.68c-1.34,4.88-2.54,9.48-3.59,13.82l-19.02-67.22l7.74-6.66
			l0-0.82L171,34.99l0,0.82c1.31,1.14,2.4,2.07,3.3,2.79c0.89,0.72,1.63,1.35,2.21,1.9c0.58,0.55,1.04,1.04,1.38,1.49
			c0.34,0.45,0.58,0.97,0.73,1.57c0.97,3.23,23.22,75.02,25.99,84.52l9.89-0.02c-0.15-0.25-0.19-0.63-0.15-1.16
			c0.05-0.52,0.13-1.09,0.25-1.72c0.12-0.62,0.26-1.26,0.43-1.91c0.17-0.65,0.32-1.22,0.47-1.72c0.82-3.14,1.21-5.13,2.2-8.96
			c0.98-3.83,2.04-7.85,3.16-12.06c1.13-4.21,10.4-37.78,10.4-37.78l20.29,65.23l9.51-0.02c0.33-1.64,1.14-4.75,2.41-9.33
			C264.73,114.06,271.98,86.32,274.86,76.33"/>
		<path class="st0" d="M672.56,75.59c2.88-9.98,6.11-21.2,9.71-33.64c2.07-1.99,3.73-3.59,4.99-4.79c1.25-1.2,2.14-1.99,2.67-2.39
			l0-0.75l-23.46,0.04l0,0.82c1.3,0.94,2.68,1.92,4.13,2.94c1.45,1.02,2.8,2.05,4.06,3.09c-2.68,9.66-5.11,18.38-7.26,26.18
			c-2.16,7.79-4.03,14.57-5.61,20.35c-1.58,5.78-2.86,10.5-3.85,14.19c-0.98,3.69-1.15,3.98-1.44,5.43l-23.4-72.93l-2.74,0.01
			c-2.11,7.12-11.75,39.68-13.34,45.26c-1.58,5.58-3.04,10.8-4.39,15.68c-1.34,4.88-2.54,9.48-3.59,13.82l-19.02-67.22l7.74-6.66
			l0-0.82l-29.07,0.06l0,0.82c1.31,1.14,2.4,2.07,3.3,2.79c0.89,0.72,1.63,1.35,2.21,1.9c0.58,0.55,1.04,1.04,1.38,1.49
			c0.34,0.45,0.58,0.97,0.73,1.57c0.97,3.23,23.22,75.02,25.99,84.52l9.89-0.02c-0.15-0.25-0.19-0.63-0.15-1.16
			c0.05-0.52,0.13-1.09,0.25-1.72c0.12-0.62,0.26-1.26,0.43-1.9c0.17-0.65,0.32-1.22,0.47-1.72c0.82-3.14,1.22-5.13,2.2-8.96
			c0.98-3.83,2.04-7.85,3.16-12.06c1.13-4.21,10.4-37.78,10.4-37.78l20.28,65.23l9.51-0.02c0.33-1.64,1.14-4.75,2.41-9.33
			C662.43,113.31,669.69,85.57,672.56,75.59"/>
	</g>
</g>
<g id="Layer_2" class="st1">
	<rect x="39.16" y="89.89" class="st2" width="1441.58" height="121.85"/>
	<text transform="matrix(1 0 0 1 39.1645 165.1942)" class="st3 st4 st5">EDICIÓN LIMITADA</text>
</g>
</svg>
