<svg id="Capa_1" data-name="Capa 1" xmlns="http://www.w3.org/2000/svg" xmlns:xlink="http://www.w3.org/1999/xlink" viewBox="0 0 859 197"><defs><style>.cls-1{fill:none;}.cls-2{clip-path:url(#clip-path);}.cls-3{fill:#fff;}</style><clipPath id="clip-path"><rect class="cls-1" x="5" y="3.02" width="849.79" height="188.62"/></clipPath></defs><title>Mesa de trabajo 1</title><g id="Layer_1" data-name="Layer 1"><g class="cls-2"><path class="cls-3" d="M67.63,169.15a6.07,6.07,0,0,0,2.42-.47,5.35,5.35,0,0,0,1.82-1.3,5.81,5.81,0,0,0,1.13-1.9,6.9,6.9,0,0,0,.38-2.28,5.69,5.69,0,0,0-1.7-4.34q-1.7-1.58-5.28-1.58H61.52c0,1,0,2.17,0,3.41s0,2.43.07,3.57.07,2.17.1,3.06.08,1.5.12,1.83Zm-.8-14.07a6.47,6.47,0,0,0,2-.33,5.37,5.37,0,0,0,1.78-1,4.51,4.51,0,0,0,1.23-1.59,5.1,5.1,0,0,0,.45-2.19A5.91,5.91,0,0,0,72,148a4.72,4.72,0,0,0-1.14-1.7,5.21,5.21,0,0,0-2-1.14,9.37,9.37,0,0,0-2.93-.41H61.48l0,10.37Zm-13.52,16,3.29-2.36,0-23.45-3.65-2.52v-.32l14,0a16.29,16.29,0,0,1,4.76.63,11.82,11.82,0,0,1,3.44,1.61,7.28,7.28,0,0,1,2.1,2.21,4.76,4.76,0,0,1,.71,2.39,5.27,5.27,0,0,1-.7,2.74,6.4,6.4,0,0,1-1.86,2,9.16,9.16,0,0,1-2.64,1.3,13.63,13.63,0,0,1-3,.59,16.62,16.62,0,0,1,4.34.9,11.13,11.13,0,0,1,3.12,1.73A6.87,6.87,0,0,1,79,160.84a5.6,5.6,0,0,1,.62,2.51,6,6,0,0,1-.82,3A8.94,8.94,0,0,1,76.6,169a10.85,10.85,0,0,1-3.21,1.78,11.16,11.16,0,0,1-3.89.67l-16.15,0Z"/></g><g class="cls-2"><path class="cls-3" d="M91.19,171.05l3.4-2.53c0-.75,0-1.53,0-2.34s0-1.6,0-2.37,0-1.47-.07-2.13,0-1.2-.09-1.66c-.26-.47-.6-1.09-1-1.85s-.92-1.6-1.43-2.52-1.07-1.87-1.64-2.86l-1.67-2.88c-.53-.93-1-1.78-1.51-2.55L86,145.47l-3.62-2.73v-.32l13,0,0,.35c-.64.45-1.29.92-1.94,1.42s-1.27,1-1.88,1.61c2,3.66,4.17,7.29,6.42,10.89,1.21-1.88,2.38-3.76,3.49-5.63s2.19-3.73,3.22-5.55c-1.06-.88-2.22-1.79-3.48-2.76v-.35l10.35,0v.38l-3,2.12a15.16,15.16,0,0,0-1,1.43c-.48.74-1,1.6-1.62,2.62s-1.25,2.08-1.92,3.22-1.32,2.21-1.92,3.25l-1.61,2.72c-.47.78-.79,1.33-1,1.62,0,.51,0,1.13,0,1.87s0,1.51,0,2.31,0,1.61,0,2.41,0,1.53,0,2.2l3.47,2.52v.32l-11.91,0Z"/></g><g class="cls-2"><path class="cls-3" d="M642.25,168.34c-5.53,0-10.36,0-14.32-.15l0-31.75,4.92-3.14,0-.43-4.86,0H621l-4.46,0,0,.4,4.41,3.19.07,31.68-4.43,3.17,0,.45,29.91-.06v-8.58h-.53Zm33-35.13,0-.43h-4.52l-6.72,0h-4.54l0,.42,4.53,3.17v31.7l-4.68,3.17,0,.42h4.75l6.74,0,4.63,0,0-.4-4.69-3.14,0-17,0-14.71Zm-87.64,21.15-6.53-16.71-6.35,16.76Zm12.65,13.29,4.46,3.67,0,.45h-17l.07-.43,5-3.63-4.05-10.38c-4.74-.05-9.74-.09-15.11,0l-4,10.4,5,3.64,0,.42H561.44v-.43l4.38-3.63,14.08-35.67h5.91Zm77.59-18.6c7-6.57,11.88-10.93,14.18-12.77l5.91-3.09,0-.42-13.15,0v.41l1.95,3c-5.44,5.41-11.42,11-16,14.91l15.72,17.11-1.62,3,0,.44h14.13l0-.43-3.06-3c-7.08-7.32-13.12-13.74-18.13-19.16m122.37,14.38,3.42,0,0,8.12,1.51,0,0-8.08,3.39,0,0-1.41h-8.38Zm-61.12,5-15.93,0,0-15.4c2.95-.13,7-.16,12.24-.17l3,4.51.47,0,0-12.13h-.43l-3,4.54c-7,0-11.06,0-12.38-.1,0-4.65,0-9.21-.06-13.47,4.84-.26,10.14-.34,15.84-.15l3.27,4.3h.4v-7.58l-30.59,0v.47l4.44,3.14.05,31.75L712,171.2l0,.42,31.38,0v-8.53h-.46ZM545.28,123.57l4.6,3.52L539.4,162.9c-.63-2.88-4.62-16.19-10.47-35.45l4.28-3.8,0-.49-16.7.06v.4l4.31,3.63-10.44,35.36L500,127.23l4.56-3.59v-.45h-16.1v.46l3.88,3.67c7.38,23.21,12.08,38.23,13.84,45.11l4.79,0Q515.65,156,522.88,132c5,16.24,9.27,29.67,12.22,40.42h5.08q4.52-16.71,13.67-45.12l3.91-3.7,0-.43H545.29Zm240.44,19.74c0-4.19-3.24-7.79-8.59-7.73-.9,0-3.87.08-6.1.2l-.08,16c1.3.05,3.41.07,4.4.07,6.71,0,10.41-3,10.37-8.54m10.9,27.84,0,.4-8.9,0-9.24-15.3a3.15,3.15,0,0,0-3.24-1.79c-.71,0-2.36,0-4.27.1l.16,13.56,4.5,3-.05.46-4.71,0-6.53,0h-4.71v-.43l4.72-3.14,0-31.63-4.45-3.24v-.43l8.63,0,3.49,0,5.92,0c9.34,0,15.56,4.3,15.6,10.43,0,5.86-5.65,10.09-12.77,10.23a6.92,6.92,0,0,1,5.56,3.75l6.14,9.63a24.69,24.69,0,0,0,4.21,4.41M819.35,162l-3.69,5.82L812,162l-1.54,0,0,9.51H812l0-6.74,3.71,5.65,3.68-5.7,0,6.79,1.51,0,0-9.52Zm-566-28.71H249l0,.41,4.44,3.2,0,13.12-21.08.06,0-13.18,4.43-3.19,0-.42-4.41,0-6.73,0-4.44,0v.41l4.43,3.12,0,31.73-4.44,3.16,0,.43h11.14l4.41,0,0-.42-4.43-3.13-.05-15.34h21.12v15.32L249,171.71l0,.43h4.42l6.73,0h4.43v-.43l-4.45-3.17,0-31.67,4.44-3.2,0-.41h-4.43ZM131.87,123.8l6.1,3.86.09,46.47c0,11.47-6.89,14.66-10.56,14.67-.54,0-1-.06-1-.06a3.78,3.78,0,0,0,1-2.78,3.33,3.33,0,0,0-3.49-3.24,4,4,0,0,0-3.77,4.13c.06,2.88,2.89,4.81,6.31,4.77,11,0,18.78-13.83,18.76-22.71l0-41.28,5.36-3.83v-.46l-18.81,0Zm190.4,9.8,0-.41H309l0,.44,5.19,3.83c.16,7.33.26,15.93.28,25.65-12.62-16.61-21.15-26-23.54-29.93l-11.53,0,0,.41,5.4,3.73c.42,12.53.47,22.71,0,30.6l-4.49,3.75v.41l13.3,0v-.44l-5-3.71c-.3-9.17-.46-18.14-.43-27l23,28.9c.7.86,1.61,1.86,1.57,2.55h5.38c-.7-9.93-.77-21.52-.36-34.91Zm-122,19.08c-.08-10.56-5.91-18.53-14.57-18.5s-14.33,8-14.34,18.54c0,12,6.54,18.44,14.41,18.43s14.5-6.59,14.5-18.47m7.18,0a21.39,21.39,0,0,1-21.37,21.4l-.74,0a21.4,21.4,0,0,1-.09-42.79h.8a21.4,21.4,0,0,1,21.4,21.36m171.17-19.1-.06-.44-13.29.07v.4l5.21,3.83c.17,7.29.29,16,.3,25.65-12.61-16.58-21.16-26-23.57-29.89h-11.5l0,.45,5.4,3.7c.47,12.53.51,22.73.05,30.59l-4.53,3.72v.44h13.3l0-.44-5-3.72c-.3-9.18-.46-18.16-.47-27l23,28.84c.7.89,1.58,1.9,1.59,2.54l5.36,0c-.72-9.93-.74-21.51-.36-34.9Zm75.85,35.11-15.93.06V153.28c2.92-.1,7-.11,12.27-.16l3,4.49.43,0V145.52l-.41,0-3,4.55c-6.94,0-11,0-12.35-.09,0-4.7,0-9.26,0-13.54,4.82-.2,10.11-.27,15.79-.11l3.27,4.32h.43v-7.57H427.3v.43l4.46,3.16v31.68l-4.42,3.18V172l31.31,0V163.4h-.44Zm-48.69-.26,4.69,3.17V172H394.39l-.05-.46,4.71-3.15L399,136.71l-4.45-3.18-.06-.45,4.52,0,6.69-.05,4.54,0v.45l-4.53,3.12Z"/></g><g class="cls-2"><path class="cls-3" d="M196.89,90c-.08-1-.14-2.72-.18-5s-.09-5.1-.13-8.32-.09-6.82-.13-10.81-.08-8.19-.11-12.59-.05-8.94-.05-13.62,0-9.32,0-13.93q2.69-2.31,4.49-3.78A18.65,18.65,0,0,1,204,19.67V19L176.58,19v.69a18.24,18.24,0,0,1,4,2.52q2,1.65,4.45,3.64.07,6.48.11,13.12t.05,13.62v.29l-37.7.07v-.22q0-5.86,0-12.53T147.38,26q2.64-2.05,4.84-3.69a31.27,31.27,0,0,1,3.87-2.5v-.69l-28.79.05v.69a26.87,26.87,0,0,1,4,2.39q2.13,1.53,4.71,3.7l.35,64.38-8.19,5.94v.69l28.27,0v-.69L148,90.59c-.12-1.58-.21-5-.28-10.19s-.13-12.39-.18-21.53v-.19l37.65-.07q.09,15.24.06,31.54l-8,6v.69l28.1,0V96.1Z"/></g><g class="cls-2"><path class="cls-3" d="M235.25,89.54l-.35-63.45c.69-.58,1.43-1.17,2.23-1.75s1.61-1.15,2.43-1.69L242,21.06c.8-.52,1.53-1,2.18-1.47V18.9L214.64,19v.69q4.19,2.92,9,6.34.21,18,.27,33.72T224,89.62l-9.79,6.44v.69l30.45-.06V96Z"/></g><g class="cls-2"><path class="cls-3" d="M291.41,92.52c-1.72-1.18-3.45-2.43-5.17-3.76L285.78,25c1.38-.09,3.36-.16,6-.23s6,0,10.26.2c1.69,2.24,3.18,4.23,4.49,6a30.38,30.38,0,0,1,3.33,5.66h.75c-.12-4-.21-7.43-.25-10.32s-.05-5.39,0-7.51l-60.26.11-.19,18.76h.75a42.33,42.33,0,0,1,3.32-6.21q1.94-3,4.46-6.4c4.24-.21,7.63-.36,10.15-.42a53,53,0,0,1,5.79.08q.15,18.94.24,35.12t0,29.95L265.52,96v.68l31.08-.06v-.69c-1.75-1.06-3.47-2.19-5.19-3.37"/></g><g class="cls-2"><path class="cls-3" d="M370,79.38c-.3.67-.64,1.34-1,2s-.8,1.44-1.32,2.28-1.13,1.79-1.86,2.87-1.6,2.35-2.63,3.81c-4.36.13-8.3.21-13.18.24s-7.72,0-12.58-.19q-.37-17.07-.4-31.91c2.67-.09,4.38-.17,7.8-.26s4.85-.13,9.67-.14L360,67.2h.69l0-23.56H360l-5.09,8.42c-2.71.13-9.63.4-11.56.43s-5.93,0-6.54-.08q-.31-17.2-.05-27.86c2.22-.09,2.4-.16,4.58-.23s4.39-.11,6.65-.14,4.57,0,6.94,0,4.2.07,6.84.14l6.73,9.4h.63q-.18-5.24-.25-8.94c0-2.47-.05-4.5,0-6.08l-51.67.1v.68l7.64,5.6q.34,4.74.53,20.79t.17,43.47l-8.13,6.56v.69l53.39-.1,0-17.08Z"/></g><g class="cls-2"><path class="cls-3" d="M777.74,78.61c-.31.67-.64,1.34-1,2s-.8,1.44-1.32,2.28-1.13,1.79-1.86,2.87-1.6,2.35-2.63,3.81c-4.36.13-8.3.21-13.18.24s-7.72,0-12.58-.19q-.37-17.07-.4-31.91c2.67-.09,4.38-.17,7.8-.26s4.85-.13,9.67-.14l5.47,9.09h.69l0-23.56h-.69l-5.09,8.42c-2.71.13-9.63.4-11.56.43s-5.93,0-6.54-.08q-.32-17.2-.05-27.86c2.22-.09,2.4-.16,4.58-.23s4.4-.11,6.65-.14,4.57,0,6.94,0,4.2.07,6.84.14l6.73,9.4h.63q-.18-5.23-.25-8.94c0-2.47,0-4.5,0-6.08L724.87,18v.69l7.64,5.59q.35,4.74.53,20.78t.17,43.47l-8.13,6.56v.69l53.39-.1,0-17.08Z"/></g><g class="cls-2"><path class="cls-3" d="M534,61.49c2.44-7.2,8.53-23.39,10.5-28.59,2.75,7.37,6.86,19.61,9.78,28.55-8.1.27-12.48.28-20.28,0M575.31,89c-5-13.2-22.35-60.71-26.94-73.23h-3.09c-4.6,12.53-8.76,22.57-13.35,35.25-4.35,12-9,24.73-13.73,37.83-1.83,1.69-2.93,2.48-4,3.56s-2.18,2.1-3.29,3.06v.69l22.17,0v-.69l-8.26-6.84c1.14-3.66,5.32-15.56,7.34-21.27,4.89-.22,6.28-.31,10.89-.3s8.91.14,13.35.38c1.34,3.9,6.22,18.1,7.35,21.73l-8.4,6.25v.69l28.19-.05v-.69Z"/></g><g class="cls-2"><path class="cls-3" d="M642.72,77.74H642q-1.43,2.69-3.23,5.65t-4,6.33q-8.09.33-14.65.15c-4.38-.12-8.31-.27-11.78-.48q-.18-6.23-.23-13.84t-.06-16q0-8.36,0-17.2t0-17.58l9.16-5.94v-.69l-29.3.05v.69l8.38,5.9q.08,9.54.15,18.51t.09,17.11q0,8.13,0,15.33T596.34,89l-8.42,6.31V96l55.05-.1q-.24-6.11-.31-10.5t.06-7.68"/></g><g class="cls-2"><path class="cls-3" d="M699.42,74.43c-6.36-7.36-12.36-14.82-18.8-23.2,4-4.41,7.94-8.55,11.89-12.61s7.94-8.2,12-12q4.47-2.74,7.73-4.69c2.17-1.29,4-2.35,5.61-3.19V18l-21.55,0v.75a38.46,38.46,0,0,1,3.46,3.62c-.42.54-4.16,4.26-5.22,5.42s-2.37,2.54-3.89,4.12-3.22,3.32-5.07,5.21S681.81,41,679.86,43,676,46.84,674,48.76s-3.81,3.68-5.52,5.31q-.08-7.55-.09-15t0-14.3l8.47-6v-.69l-28.67.05v.69l8.84,6.28.35,64.19L649,95.24v.69l28.27-.05v-.69q-5-3.42-8.27-6.15-.24-6.42-.37-15.21t-.21-18.57q2.53,2.49,9.54,11t18.85,23l-3.66,5.93v.62l25.23,0v-.69q-9.45-9.63-19-20.68"/></g><g class="cls-2"><path class="cls-3" d="M816.76,56.16l-2,0-2.52-.06L809.68,56l-2,0V23.63c1.6-.21,3.26-.36,5-.45s3.26-.13,4.67-.13a20.37,20.37,0,0,1,7.26,1.2,16.62,16.62,0,0,1,5.54,3.35,15.14,15.14,0,0,1,3.57,5.07A15.9,15.9,0,0,1,835,39q0,8.1-4.56,12.6c-3.06,3-7.61,4.53-13.64,4.54m38,38.7a3.53,3.53,0,0,1-1.69-1,24.2,24.2,0,0,1-2.24-2.27c-.79-.89-1.56-1.84-2.33-2.86a24.1,24.1,0,0,1-1.9-2.89l-2.24-4c-1-1.7-1.95-3.47-3-5.29s-2-3.57-2.93-5.23-1.68-2.95-2.21-3.86a24.56,24.56,0,0,0-2.59-3.61,15.79,15.79,0,0,0-2.56-2.36,10.82,10.82,0,0,0-2.67-1.43,28.1,28.1,0,0,0-2.93-.87,24.09,24.09,0,0,0,8.2-2.16,23,23,0,0,0,7.13-4.47,19.26,19.26,0,0,0,4.49-6.3,18.56,18.56,0,0,0,1.56-7.67,17.56,17.56,0,0,0-1.65-7.23,20.17,20.17,0,0,0-4.94-6.69A25.91,25.91,0,0,0,832,19.76a33.33,33.33,0,0,0-11.93-1.91l-9.55,0-22.71,0v.69l8.21,6q.21,15.47.38,31.72t0,32.85L787.82,95v.69l29.24-.06V95c-2.72-1.74-4.79-3.09-6.23-4s-2.36-1.59-2.78-1.93q-.3-9.84-.39-27.42c.53-.08,1.37-.16,2.52-.22s2.6-.1,4.36-.1a9,9,0,0,1,4.16.83,8.85,8.85,0,0,1,3,3l4.86,8.56q2.38,4.2,4.52,8.13l4,7.44,3.45,6.44,16.23,0Z"/></g><g class="cls-2"><path class="cls-3" d="M108.86,45.33q4.32-15,9.71-33.64l5-4.79a35.11,35.11,0,0,1,2.67-2.39V3.76l-23.46,0v.82q2,1.41,4.13,2.94T111,10.65q-4,14.49-7.26,26.18T98.09,57.18q-2.37,8.67-3.85,14.19c-1,3.69-1.15,4-1.44,5.43L69.4,3.87H66.66C64.55,11,54.91,43.56,53.32,49.14s-3,10.8-4.39,15.68-2.54,9.48-3.59,13.82l-19-67.22,7.74-6.66V3.94L5,4v.82C6.31,6,7.4,6.88,8.3,7.6S9.93,9,10.51,9.5A12.64,12.64,0,0,1,11.89,11a4.28,4.28,0,0,1,.73,1.57c1,3.23,23.22,75,26,84.52l9.89,0a2,2,0,0,1-.15-1.16c0-.52.13-1.09.25-1.72s.26-1.26.43-1.91.32-1.22.47-1.72c.82-3.14,1.21-5.13,2.2-9s2-7.85,3.16-12.06,10.4-37.78,10.4-37.78L85.55,97l9.51,0c.33-1.64,1.14-4.75,2.41-9.33s8.51-32.31,11.39-42.3"/></g><g class="cls-2"><path class="cls-3" d="M506.56,44.59q4.32-15,9.71-33.64l5-4.79a35.11,35.11,0,0,1,2.67-2.39V3l-23.46,0v.82q1.95,1.41,4.13,2.94t4.06,3.09q-4,14.49-7.26,26.18t-5.61,20.35q-2.37,8.67-3.85,14.19c-1,3.69-1.15,4-1.44,5.43L467.1,3.13h-2.74C462.25,10.26,452.61,42.82,451,48.4s-3,10.8-4.39,15.68S444.09,73.56,443,77.9L424,10.68,431.76,4V3.2l-29.07.06v.82c1.31,1.14,2.4,2.07,3.3,2.79s1.63,1.35,2.21,1.9a12.64,12.64,0,0,1,1.38,1.49,4.28,4.28,0,0,1,.73,1.57c1,3.23,23.22,75,26,84.52l9.89,0a2,2,0,0,1-.15-1.16c0-.52.13-1.09.25-1.72s.26-1.26.43-1.9.32-1.22.47-1.72c.82-3.14,1.22-5.13,2.2-9s2-7.85,3.16-12.06S463,31,463,31l20.28,65.23,9.51,0c.33-1.64,1.14-4.75,2.41-9.33s8.54-32.34,11.41-42.32"/></g></g></svg>